<svg width="588" height="478" viewBox="0 0 588 478" fill="none" xmlns="http://www.w3.org/2000/svg">
<circle cx="305.5" cy="240.5" r="217.5" stroke="#B6C7B5" stroke-width="4"/>
<rect x="85" width="200" height="57" rx="15" fill="#D91A5B"/>
<path d="M136.357 36V21.4545H139.432V33.4645H145.668V36H136.357ZM147.405 36V21.4545H157.206V23.9901H150.48V27.456H156.702V29.9915H150.48V33.4645H157.234V36H147.405ZM161.858 36H158.563L163.584 21.4545H167.547L172.561 36H169.266L165.622 24.7784H165.509L161.858 36ZM161.652 30.2827H169.436V32.6832H161.652V30.2827ZM174.012 36V21.4545H179.75C180.849 21.4545 181.786 21.651 182.563 22.044C183.344 22.4323 183.938 22.9839 184.346 23.6989C184.758 24.4091 184.964 25.2448 184.964 26.206C184.964 27.1719 184.755 28.0028 184.339 28.6989C183.922 29.3902 183.318 29.9205 182.527 30.2898C181.741 30.6591 180.79 30.8438 179.672 30.8438H175.83V28.3722H179.175C179.762 28.3722 180.25 28.2917 180.638 28.1307C181.027 27.9697 181.315 27.7282 181.505 27.4062C181.699 27.0843 181.796 26.6842 181.796 26.206C181.796 25.723 181.699 25.3158 181.505 24.9844C181.315 24.6529 181.024 24.402 180.631 24.2315C180.243 24.0563 179.753 23.9688 179.161 23.9688H177.087V36H174.012ZM181.867 29.3807L185.482 36H182.087L178.55 29.3807H181.867ZM199.003 21.4545V36H196.347L190.019 26.8452H189.912V36H186.837V21.4545H189.536L195.814 30.6023H195.942V21.4545H199.003ZM204.319 21.4545V36H201.244V21.4545H204.319ZM218.716 21.4545V36H216.059L209.731 26.8452H209.625V36H206.549V21.4545H209.248L215.527 30.6023H215.654V21.4545H218.716ZM230.601 26.1562C230.502 25.8106 230.362 25.5052 230.182 25.2401C230.002 24.9702 229.782 24.7429 229.522 24.5582C229.266 24.3688 228.972 24.2244 228.641 24.125C228.314 24.0256 227.952 23.9759 227.554 23.9759C226.811 23.9759 226.158 24.1605 225.594 24.5298C225.035 24.8991 224.6 25.4366 224.287 26.142C223.975 26.8428 223.819 27.6998 223.819 28.7131C223.819 29.7263 223.972 30.5881 224.28 31.2983C224.588 32.0085 225.024 32.5507 225.587 32.9247C226.151 33.294 226.816 33.4787 227.583 33.4787C228.279 33.4787 228.873 33.3556 229.365 33.1094C229.863 32.8584 230.241 32.5057 230.502 32.0511C230.767 31.5966 230.9 31.0592 230.9 30.4389L231.525 30.5312H227.775V28.2159H233.861V30.0483C233.861 31.3267 233.591 32.4252 233.052 33.3438C232.512 34.2576 231.768 34.9631 230.821 35.4602C229.874 35.9527 228.79 36.1989 227.569 36.1989C226.205 36.1989 225.007 35.8982 223.975 35.2969C222.943 34.6908 222.138 33.8314 221.56 32.7188C220.987 31.6013 220.701 30.2756 220.701 28.7415C220.701 27.5625 220.871 26.5114 221.212 25.5881C221.558 24.66 222.041 23.8741 222.661 23.2301C223.281 22.5862 224.003 22.0961 224.827 21.7599C225.651 21.4238 226.544 21.2557 227.505 21.2557C228.329 21.2557 229.096 21.3764 229.806 21.6179C230.516 21.8546 231.146 22.1908 231.695 22.6264C232.249 23.062 232.701 23.5805 233.052 24.1818C233.402 24.7784 233.627 25.4366 233.726 26.1562H230.601Z" fill="white"/>
<rect y="205" width="200" height="57" rx="15" fill="#F9A22D"/>
<path d="M74.1136 231.547H71.0028C70.946 231.144 70.83 230.787 70.6548 230.474C70.4796 230.157 70.2547 229.887 69.9801 229.665C69.7055 229.442 69.3883 229.272 69.0284 229.153C68.6733 229.035 68.2874 228.976 67.8707 228.976C67.1179 228.976 66.4621 229.163 65.9034 229.537C65.3447 229.906 64.9115 230.446 64.6037 231.156C64.2959 231.862 64.142 232.719 64.142 233.727C64.142 234.764 64.2959 235.635 64.6037 236.341C64.9162 237.046 65.3518 237.579 65.9105 237.939C66.4692 238.299 67.1155 238.479 67.8494 238.479C68.2614 238.479 68.6425 238.424 68.9929 238.315C69.348 238.206 69.6629 238.048 69.9375 237.839C70.2121 237.626 70.4394 237.368 70.6193 237.065C70.804 236.762 70.9318 236.417 71.0028 236.028L74.1136 236.043C74.0331 236.71 73.8319 237.354 73.5099 237.974C73.1927 238.59 72.7642 239.142 72.2244 239.629C71.6894 240.112 71.0502 240.496 70.3068 240.78C69.5682 241.059 68.7325 241.199 67.7997 241.199C66.5024 241.199 65.3423 240.905 64.3196 240.318C63.3016 239.731 62.4967 238.881 61.9048 237.768C61.3177 236.656 61.0241 235.309 61.0241 233.727C61.0241 232.141 61.3224 230.792 61.919 229.679C62.5156 228.566 63.3253 227.719 64.348 227.136C65.3707 226.549 66.5213 226.256 67.7997 226.256C68.6425 226.256 69.4238 226.374 70.1435 226.611C70.8679 226.848 71.5095 227.193 72.0682 227.648C72.6269 228.098 73.0814 228.649 73.4318 229.303C73.7869 229.956 74.0142 230.704 74.1136 231.547ZM78.2526 241H74.9571L79.9784 226.455H83.9415L88.9557 241H85.6602L82.0168 229.778H81.9031L78.2526 241ZM78.0466 235.283H85.8307V237.683H78.0466V235.283ZM90.4064 241V226.455H96.145C97.2435 226.455 98.181 226.651 98.9575 227.044C99.7388 227.432 100.333 227.984 100.74 228.699C101.152 229.409 101.358 230.245 101.358 231.206C101.358 232.172 101.15 233.003 100.733 233.699C100.316 234.39 99.7127 234.92 98.922 235.29C98.136 235.659 97.1843 235.844 96.0669 235.844H92.2246V233.372H95.5697C96.1569 233.372 96.6446 233.292 97.0328 233.131C97.4211 232.97 97.7099 232.728 97.8993 232.406C98.0934 232.084 98.1905 231.684 98.1905 231.206C98.1905 230.723 98.0934 230.316 97.8993 229.984C97.7099 229.653 97.4187 229.402 97.0257 229.232C96.6375 229.056 96.1474 228.969 95.5555 228.969H93.4817V241H90.4064ZM98.2615 234.381L101.877 241H98.4817L94.9447 234.381H98.2615ZM103.231 241V226.455H113.033V228.99H106.307V232.456H112.528V234.991H106.307V238.464H113.061V241H103.231ZM115.177 241V226.455H124.979V228.99H118.253V232.456H124.474V234.991H118.253V238.464H125.007V241H115.177ZM127.124 241V226.455H132.862C133.961 226.455 134.898 226.651 135.675 227.044C136.456 227.432 137.05 227.984 137.457 228.699C137.869 229.409 138.075 230.245 138.075 231.206C138.075 232.172 137.867 233.003 137.45 233.699C137.034 234.39 136.43 234.92 135.639 235.29C134.853 235.659 133.902 235.844 132.784 235.844H128.942V233.372H132.287C132.874 233.372 133.362 233.292 133.75 233.131C134.138 232.97 134.427 232.728 134.616 232.406C134.811 232.084 134.908 231.684 134.908 231.206C134.908 230.723 134.811 230.316 134.616 229.984C134.427 229.653 134.136 229.402 133.743 229.232C133.355 229.056 132.865 228.969 132.273 228.969H130.199V241H127.124ZM134.979 234.381L138.594 241H135.199L131.662 234.381H134.979Z" fill="white"/>
<rect x="103" y="421" width="200" height="57" rx="15" fill="#39AE49"/>
<path d="M148.701 457V442.455H158.502V444.99H151.776V448.456H157.998V450.991H151.776V454.464H158.53V457H148.701ZM173.481 447.547H170.37C170.313 447.144 170.197 446.787 170.022 446.474C169.847 446.157 169.622 445.887 169.347 445.665C169.073 445.442 168.755 445.272 168.396 445.153C168.04 445.035 167.655 444.976 167.238 444.976C166.485 444.976 165.829 445.163 165.271 445.537C164.712 445.906 164.279 446.446 163.971 447.156C163.663 447.862 163.509 448.719 163.509 449.727C163.509 450.764 163.663 451.635 163.971 452.341C164.283 453.046 164.719 453.579 165.278 453.939C165.836 454.299 166.483 454.479 167.217 454.479C167.629 454.479 168.01 454.424 168.36 454.315C168.715 454.206 169.03 454.048 169.305 453.839C169.579 453.626 169.807 453.368 169.987 453.065C170.171 452.762 170.299 452.417 170.37 452.028L173.481 452.043C173.4 452.71 173.199 453.354 172.877 453.974C172.56 454.59 172.131 455.142 171.592 455.629C171.057 456.112 170.417 456.496 169.674 456.78C168.935 457.059 168.1 457.199 167.167 457.199C165.87 457.199 164.71 456.905 163.687 456.318C162.669 455.731 161.864 454.881 161.272 453.768C160.685 452.656 160.391 451.309 160.391 449.727C160.391 448.141 160.69 446.792 161.286 445.679C161.883 444.566 162.692 443.719 163.715 443.136C164.738 442.549 165.888 442.256 167.167 442.256C168.01 442.256 168.791 442.374 169.511 442.611C170.235 442.848 170.877 443.193 171.435 443.648C171.994 444.098 172.449 444.649 172.799 445.303C173.154 445.956 173.381 446.704 173.481 447.547ZM188.753 449.727C188.753 451.313 188.452 452.663 187.851 453.776C187.254 454.888 186.44 455.738 185.407 456.325C184.38 456.908 183.225 457.199 181.941 457.199C180.649 457.199 179.489 456.905 178.461 456.318C177.434 455.731 176.622 454.881 176.025 453.768C175.429 452.656 175.13 451.309 175.13 449.727C175.13 448.141 175.429 446.792 176.025 445.679C176.622 444.566 177.434 443.719 178.461 443.136C179.489 442.549 180.649 442.256 181.941 442.256C183.225 442.256 184.38 442.549 185.407 443.136C186.44 443.719 187.254 444.566 187.851 445.679C188.452 446.792 188.753 448.141 188.753 449.727ZM185.635 449.727C185.635 448.7 185.481 447.833 185.173 447.128C184.87 446.422 184.441 445.887 183.887 445.523C183.334 445.158 182.685 444.976 181.941 444.976C181.198 444.976 180.549 445.158 179.995 445.523C179.441 445.887 179.011 446.422 178.703 447.128C178.4 447.833 178.248 448.7 178.248 449.727C178.248 450.755 178.4 451.621 178.703 452.327C179.011 453.032 179.441 453.567 179.995 453.932C180.549 454.296 181.198 454.479 181.941 454.479C182.685 454.479 183.334 454.296 183.887 453.932C184.441 453.567 184.87 453.032 185.173 452.327C185.481 451.621 185.635 450.755 185.635 449.727ZM202.897 442.455V457H200.241L193.912 447.845H193.806V457H190.731V442.455H193.429L199.708 451.602H199.836V442.455H202.897ZM218.504 449.727C218.504 451.313 218.203 452.663 217.602 453.776C217.006 454.888 216.191 455.738 215.159 456.325C214.131 456.908 212.976 457.199 211.693 457.199C210.4 457.199 209.24 456.905 208.213 456.318C207.185 455.731 206.373 454.881 205.777 453.768C205.18 452.656 204.882 451.309 204.882 449.727C204.882 448.141 205.18 446.792 205.777 445.679C206.373 444.566 207.185 443.719 208.213 443.136C209.24 442.549 210.4 442.256 211.693 442.256C212.976 442.256 214.131 442.549 215.159 443.136C216.191 443.719 217.006 444.566 217.602 445.679C218.203 446.792 218.504 448.141 218.504 449.727ZM215.386 449.727C215.386 448.7 215.232 447.833 214.925 447.128C214.622 446.422 214.193 445.887 213.639 445.523C213.085 445.158 212.436 444.976 211.693 444.976C210.95 444.976 210.301 445.158 209.747 445.523C209.193 445.887 208.762 446.422 208.454 447.128C208.151 447.833 208 448.7 208 449.727C208 450.755 208.151 451.621 208.454 452.327C208.762 453.032 209.193 453.567 209.747 453.932C210.301 454.296 210.95 454.479 211.693 454.479C212.436 454.479 213.085 454.296 213.639 453.932C214.193 453.567 214.622 453.032 214.925 452.327C215.232 451.621 215.386 450.755 215.386 449.727ZM220.482 442.455H224.275L228.28 452.227H228.451L232.457 442.455H236.249V457H233.266V447.533H233.146L229.381 456.929H227.35L223.586 447.497H223.465V457H220.482V442.455ZM241.558 442.455V457H238.483V442.455H241.558ZM256.622 447.547H253.511C253.455 447.144 253.339 446.787 253.163 446.474C252.988 446.157 252.763 445.887 252.489 445.665C252.214 445.442 251.897 445.272 251.537 445.153C251.182 445.035 250.796 444.976 250.379 444.976C249.626 444.976 248.971 445.163 248.412 445.537C247.853 445.906 247.42 446.446 247.112 447.156C246.805 447.862 246.651 448.719 246.651 449.727C246.651 450.764 246.805 451.635 247.112 452.341C247.425 453.046 247.86 453.579 248.419 453.939C248.978 454.299 249.624 454.479 250.358 454.479C250.77 454.479 251.151 454.424 251.501 454.315C251.857 454.206 252.171 454.048 252.446 453.839C252.721 453.626 252.948 453.368 253.128 453.065C253.313 452.762 253.44 452.417 253.511 452.028L256.622 452.043C256.542 452.71 256.341 453.354 256.019 453.974C255.701 454.59 255.273 455.142 254.733 455.629C254.198 456.112 253.559 456.496 252.815 456.78C252.077 457.059 251.241 457.199 250.308 457.199C249.011 457.199 247.851 456.905 246.828 456.318C245.81 455.731 245.005 454.881 244.413 453.768C243.826 452.656 243.533 451.309 243.533 449.727C243.533 448.141 243.831 446.792 244.428 445.679C245.024 444.566 245.834 443.719 246.857 443.136C247.879 442.549 249.03 442.256 250.308 442.256C251.151 442.256 251.932 442.374 252.652 442.611C253.376 442.848 254.018 443.193 254.577 443.648C255.135 444.098 255.59 444.649 255.94 445.303C256.296 445.956 256.523 446.704 256.622 447.547Z" fill="white"/>
<rect x="388" y="329" width="200" height="57" rx="15" fill="#3B8CCB"/>
<path d="M403.494 365V350.455H413.295V352.99H406.569V356.456H412.791V358.991H406.569V362.464H413.323V365H403.494ZM427.606 350.455V365H424.95L418.622 355.845H418.515V365H415.44V350.455H418.139L424.417 359.602H424.545V350.455H427.606ZM432.475 350.455L435.99 361.506H436.125L439.648 350.455H443.057L438.043 365H434.08L429.059 350.455H432.475ZM447.583 350.455V365H444.508V350.455H447.583ZM449.813 365V350.455H455.552C456.651 350.455 457.588 350.651 458.365 351.044C459.146 351.432 459.74 351.984 460.147 352.699C460.559 353.409 460.765 354.245 460.765 355.206C460.765 356.172 460.557 357.003 460.14 357.699C459.723 358.39 459.12 358.92 458.329 359.29C457.543 359.659 456.591 359.844 455.474 359.844H451.632V357.372H454.977C455.564 357.372 456.052 357.292 456.44 357.131C456.828 356.97 457.117 356.728 457.306 356.406C457.5 356.084 457.598 355.684 457.598 355.206C457.598 354.723 457.5 354.316 457.306 353.984C457.117 353.653 456.826 353.402 456.433 353.232C456.044 353.056 455.554 352.969 454.963 352.969H452.889V365H449.813ZM457.669 358.381L461.284 365H457.889L454.352 358.381H457.669ZM476.005 357.727C476.005 359.313 475.704 360.663 475.103 361.776C474.506 362.888 473.692 363.738 472.66 364.325C471.632 364.908 470.477 365.199 469.194 365.199C467.901 365.199 466.741 364.905 465.714 364.318C464.686 363.731 463.874 362.881 463.278 361.768C462.681 360.656 462.383 359.309 462.383 357.727C462.383 356.141 462.681 354.792 463.278 353.679C463.874 352.566 464.686 351.719 465.714 351.136C466.741 350.549 467.901 350.256 469.194 350.256C470.477 350.256 471.632 350.549 472.66 351.136C473.692 351.719 474.506 352.566 475.103 353.679C475.704 354.792 476.005 356.141 476.005 357.727ZM472.887 357.727C472.887 356.7 472.733 355.833 472.425 355.128C472.122 354.422 471.694 353.887 471.14 353.523C470.586 353.158 469.937 352.976 469.194 352.976C468.45 352.976 467.802 353.158 467.248 353.523C466.694 353.887 466.263 354.422 465.955 355.128C465.652 355.833 465.501 356.7 465.501 357.727C465.501 358.755 465.652 359.621 465.955 360.327C466.263 361.032 466.694 361.567 467.248 361.932C467.802 362.296 468.45 362.479 469.194 362.479C469.937 362.479 470.586 362.296 471.14 361.932C471.694 361.567 472.122 361.032 472.425 360.327C472.733 359.621 472.887 358.755 472.887 357.727ZM490.149 350.455V365H487.493L481.165 355.845H481.058V365H477.983V350.455H480.682L486.96 359.602H487.088V350.455H490.149ZM492.39 350.455H496.183L500.188 360.227H500.359L504.364 350.455H508.157V365H505.174V355.533H505.053L501.289 364.929H499.258L495.494 355.497H495.373V365H492.39V350.455ZM510.391 365V350.455H520.192V352.99H513.466V356.456H519.688V358.991H513.466V362.464H520.22V365H510.391ZM534.503 350.455V365H531.847L525.519 355.845H525.412V365H522.337V350.455H525.036L531.314 359.602H531.442V350.455H534.503ZM536.19 352.99V350.455H548.136V352.99H543.683V365H540.643V352.99H536.19ZM550.533 365H547.238L552.259 350.455H556.222L561.236 365H557.941L554.297 353.778H554.184L550.533 365ZM550.327 359.283H558.111V361.683H550.327V359.283ZM562.687 365V350.455H565.762V362.464H571.998V365H562.687Z" fill="white"/>
<rect x="388" y="61" width="200" height="57" rx="15" fill="#652D91"/>
<path d="M459.553 86.6378C459.496 86.0649 459.253 85.6198 458.822 85.3026C458.391 84.9853 457.806 84.8267 457.067 84.8267C456.566 84.8267 456.142 84.8977 455.796 85.0398C455.451 85.1771 455.185 85.3688 455.001 85.6151C454.821 85.8613 454.731 86.1406 454.731 86.4531C454.721 86.7135 454.776 86.9408 454.894 87.1349C455.017 87.3291 455.185 87.4972 455.398 87.6392C455.612 87.7765 455.858 87.8973 456.137 88.0014C456.416 88.1009 456.715 88.1861 457.032 88.2571L458.339 88.5696C458.973 88.7116 459.556 88.901 460.086 89.1378C460.616 89.3745 461.076 89.6657 461.464 90.0114C461.852 90.357 462.153 90.7642 462.366 91.233C462.584 91.7017 462.695 92.2391 462.7 92.8452C462.695 93.7353 462.468 94.5071 462.018 95.1605C461.573 95.8092 460.929 96.3134 460.086 96.6733C459.248 97.0284 458.237 97.206 457.053 97.206C455.879 97.206 454.856 97.026 453.985 96.6662C453.119 96.3063 452.442 95.7737 451.954 95.0682C451.471 94.358 451.218 93.4796 451.194 92.4332H454.17C454.203 92.9209 454.343 93.3281 454.589 93.6548C454.84 93.9768 455.174 94.2206 455.59 94.3864C456.012 94.5473 456.487 94.6278 457.018 94.6278C457.539 94.6278 457.991 94.5521 458.374 94.4006C458.763 94.2491 459.063 94.0384 459.276 93.7685C459.489 93.4986 459.596 93.1884 459.596 92.8381C459.596 92.5114 459.499 92.2367 459.305 92.0142C459.115 91.7917 458.836 91.6023 458.467 91.446C458.102 91.2898 457.655 91.1477 457.124 91.0199L455.54 90.6222C454.314 90.3239 453.346 89.8575 452.636 89.223C451.925 88.5885 451.573 87.7339 451.577 86.6591C451.573 85.7784 451.807 85.009 452.281 84.3509C452.759 83.6927 453.415 83.179 454.248 82.8097C455.081 82.4403 456.028 82.2557 457.089 82.2557C458.168 82.2557 459.111 82.4403 459.915 82.8097C460.725 83.179 461.355 83.6927 461.805 84.3509C462.254 85.009 462.487 85.7713 462.501 86.6378H459.553ZM477.835 89.7273C477.835 91.3134 477.534 92.6629 476.933 93.7756C476.336 94.8883 475.522 95.7382 474.489 96.3253C473.462 96.9077 472.307 97.1989 471.024 97.1989C469.731 97.1989 468.571 96.9053 467.543 96.3182C466.516 95.7311 465.704 94.8812 465.107 93.7685C464.511 92.6558 464.212 91.3087 464.212 89.7273C464.212 88.1411 464.511 86.7917 465.107 85.679C465.704 84.5663 466.516 83.7187 467.543 83.1364C468.571 82.5492 469.731 82.2557 471.024 82.2557C472.307 82.2557 473.462 82.5492 474.489 83.1364C475.522 83.7187 476.336 84.5663 476.933 85.679C477.534 86.7917 477.835 88.1411 477.835 89.7273ZM474.717 89.7273C474.717 88.6998 474.563 87.8333 474.255 87.1278C473.952 86.4223 473.524 85.8873 472.97 85.5227C472.416 85.1581 471.767 84.9759 471.024 84.9759C470.28 84.9759 469.631 85.1581 469.077 85.5227C468.524 85.8873 468.093 86.4223 467.785 87.1278C467.482 87.8333 467.33 88.6998 467.33 89.7273C467.33 90.7547 467.482 91.6212 467.785 92.3267C468.093 93.0322 468.524 93.5672 469.077 93.9318C469.631 94.2964 470.28 94.4787 471.024 94.4787C471.767 94.4787 472.416 94.2964 472.97 93.9318C473.524 93.5672 473.952 93.0322 474.255 92.3267C474.563 91.6212 474.717 90.7547 474.717 89.7273ZM492.646 87.5469H489.536C489.479 87.1444 489.363 86.7869 489.188 86.4744C489.012 86.1572 488.788 85.8873 488.513 85.6648C488.238 85.4422 487.921 85.2718 487.561 85.1534C487.206 85.035 486.82 84.9759 486.404 84.9759C485.651 84.9759 484.995 85.1629 484.436 85.5369C483.878 85.9062 483.444 86.446 483.137 87.1562C482.829 87.8617 482.675 88.7187 482.675 89.7273C482.675 90.7642 482.829 91.6354 483.137 92.3409C483.449 93.0464 483.885 93.5791 484.443 93.9389C485.002 94.2988 485.648 94.4787 486.382 94.4787C486.794 94.4787 487.175 94.4242 487.526 94.3153C487.881 94.2064 488.196 94.0478 488.47 93.8395C488.745 93.6264 488.972 93.3684 489.152 93.0653C489.337 92.7623 489.465 92.4167 489.536 92.0284L492.646 92.0426C492.566 92.7102 492.365 93.3542 492.043 93.9744C491.726 94.59 491.297 95.1416 490.757 95.6293C490.222 96.1122 489.583 96.4957 488.84 96.7798C488.101 97.0592 487.265 97.1989 486.333 97.1989C485.035 97.1989 483.875 96.9053 482.852 96.3182C481.834 95.7311 481.029 94.8812 480.438 93.7685C479.851 92.6558 479.557 91.3087 479.557 89.7273C479.557 88.1411 479.855 86.7917 480.452 85.679C481.048 84.5663 481.858 83.7187 482.881 83.1364C483.904 82.5492 485.054 82.2557 486.333 82.2557C487.175 82.2557 487.957 82.3741 488.676 82.6108C489.401 82.8475 490.042 83.1932 490.601 83.6477C491.16 84.0975 491.614 84.6491 491.965 85.3026C492.32 85.956 492.547 86.7041 492.646 87.5469ZM497.627 82.4545V97H494.552V82.4545H497.627ZM502.364 97H499.069L504.09 82.4545H508.053L513.067 97H509.772L506.128 85.7784H506.015L502.364 97ZM502.158 91.2827H509.942V93.6832H502.158V91.2827ZM514.518 97V82.4545H517.593V94.4645H523.829V97H514.518Z" fill="white"/>
<path d="M296.86 96.8016C292.54 97.9939 289.527 99.6413 286.344 102.653C273.552 114.585 277.013 135.103 293.096 142.724C296.676 144.43 297.415 144.544 302.928 144.546C308.441 144.547 309.18 144.434 312.761 142.73C328.848 135.118 332.321 114.601 319.536 102.662C313.343 96.8632 304.818 94.7009 296.86 96.8016Z" fill="#585858"/>
<path d="M273.65 152.836C265.977 153.97 256.768 160.504 253.299 167.266C250 173.858 250.057 172.722 250.045 216.088L250.033 255.93L251.34 258.147C252.817 260.818 256.681 263.036 259.637 263.037C262.876 262.981 266.23 261.163 268.05 258.436L269.642 255.992L269.823 220.754C269.943 196.314 270.174 185.288 270.629 184.777C271.425 183.754 273.073 183.868 274.152 184.948C274.948 185.744 275.059 194.611 275.036 274.352L275.011 362.845L276.885 365.915C278.306 368.303 279.385 369.383 281.772 370.577C285.807 372.681 289.103 372.682 293.253 370.58C297.004 368.706 299.222 365.694 300.019 361.432C300.36 359.556 300.593 341.653 300.601 314.77C300.612 276.292 300.727 271.063 301.466 270.438C302.148 269.87 302.66 269.87 303.739 270.325L305.16 271.007L305.148 314.657C305.14 341.597 305.362 359.558 305.702 361.433C306.497 365.696 308.713 368.709 312.463 370.643C316.612 372.69 319.908 372.691 323.944 370.589C326.332 369.396 327.412 368.317 328.89 365.93L330.71 362.861L330.735 274.368C330.758 194.627 330.875 185.76 331.67 184.965C332.751 183.885 334.399 183.772 335.194 184.795C335.649 185.307 335.873 196.333 335.98 220.773L336.14 256.011L337.731 258.456C339.549 261.184 342.902 263.004 346.141 263.062C349.097 263.063 352.962 260.847 354.441 258.176L355.749 255.96L355.76 216.118C355.77 181.164 355.658 175.935 354.863 173.207C353.443 168.432 351.569 165.135 348.046 161.383C344.012 157.005 337.534 153.65 331.623 152.796C326.792 152.112 278.368 152.155 273.65 152.836Z" fill="#585858"/>
</svg>
