<svg width="234" height="48" viewBox="0 0 234 48" fill="none" xmlns="http://www.w3.org/2000/svg">
<path d="M6.27841 27.0909V28.5114H0.625V27.0909H6.27841ZM2.27273 24.4773H3.94886V34.875C3.94886 35.3485 4.01752 35.7036 4.15483 35.9403C4.29688 36.1723 4.4768 36.3286 4.6946 36.4091C4.91714 36.4848 5.15152 36.5227 5.39773 36.5227C5.58239 36.5227 5.7339 36.5133 5.85227 36.4943C5.97064 36.4706 6.06534 36.4517 6.13636 36.4375L6.47727 37.9432C6.36364 37.9858 6.20502 38.0284 6.00142 38.071C5.79782 38.1184 5.53977 38.142 5.22727 38.142C4.75379 38.142 4.28977 38.0402 3.83523 37.8366C3.38542 37.633 3.01136 37.3229 2.71307 36.9062C2.41951 36.4896 2.27273 35.964 2.27273 35.3295V24.4773ZM9.71023 31.4375V38H8.03409V23.4545H9.71023V28.7955H9.85227C10.108 28.232 10.4915 27.7846 11.0028 27.4531C11.5189 27.117 12.2055 26.9489 13.0625 26.9489C13.8059 26.9489 14.4569 27.098 15.0156 27.3963C15.5743 27.6899 16.0076 28.142 16.3153 28.7528C16.6278 29.3589 16.7841 30.1307 16.7841 31.0682V38H15.108V31.1818C15.108 30.3153 14.883 29.6454 14.4332 29.1719C13.9882 28.6937 13.3703 28.4545 12.5795 28.4545C12.0303 28.4545 11.5379 28.5705 11.1023 28.8026C10.6714 29.0346 10.3305 29.3731 10.0795 29.8182C9.83333 30.2633 9.71023 30.803 9.71023 31.4375ZM23.4244 38.2273C22.3732 38.2273 21.4665 37.9953 20.7042 37.5312C19.9466 37.0625 19.3619 36.4091 18.9499 35.571C18.5427 34.7282 18.3391 33.7481 18.3391 32.6307C18.3391 31.5133 18.5427 30.5284 18.9499 29.6761C19.3619 28.8191 19.9348 28.1515 20.6687 27.6733C21.4073 27.1903 22.2691 26.9489 23.2539 26.9489C23.8221 26.9489 24.3832 27.0436 24.9371 27.233C25.4911 27.4223 25.9954 27.7301 26.4499 28.1562C26.9045 28.5777 27.2667 29.1364 27.5366 29.8324C27.8065 30.5284 27.9414 31.3854 27.9414 32.4034V33.1136H19.5323V31.6648H26.2369C26.2369 31.0492 26.1138 30.5 25.8675 30.017C25.6261 29.5341 25.2804 29.1529 24.8306 28.8736C24.3855 28.5942 23.86 28.4545 23.2539 28.4545C22.5863 28.4545 22.0086 28.6203 21.521 28.9517C21.038 29.2784 20.6663 29.7045 20.4059 30.2301C20.1455 30.7557 20.0153 31.3191 20.0153 31.9205V32.8864C20.0153 33.7102 20.1573 34.4086 20.4414 34.9815C20.7302 35.5497 21.1303 35.983 21.6417 36.2812C22.1531 36.5748 22.7473 36.7216 23.4244 36.7216C23.8647 36.7216 24.2624 36.66 24.6175 36.5369C24.9774 36.4091 25.2875 36.2197 25.5479 35.9688C25.8084 35.7131 26.0096 35.3958 26.1516 35.017L27.771 35.4716C27.6005 36.0208 27.314 36.5038 26.9116 36.9205C26.5091 37.3324 26.012 37.6544 25.4201 37.8864C24.8282 38.1136 24.163 38.2273 23.4244 38.2273Z" fill="#585858"/>
<path d="M50.4167 39V17.1818H56.1838V21.0312H56.4395C56.894 19.7528 57.6516 18.7443 58.7122 18.0057C59.7728 17.267 61.0417 16.8977 62.519 16.8977C64.0152 16.8977 65.2889 17.2718 66.34 18.0199C67.3912 18.7585 68.0919 19.7623 68.4423 21.0312H68.6696C69.1146 19.7812 69.9196 18.7822 71.0843 18.0341C72.2586 17.2765 73.6459 16.8977 75.2463 16.8977C77.2823 16.8977 78.9347 17.5464 80.2037 18.8438C81.4821 20.1316 82.1213 21.9593 82.1213 24.3267V39H76.0843V25.5199C76.0843 24.3078 75.7624 23.3987 75.1184 22.7926C74.4745 22.1866 73.6696 21.8835 72.7037 21.8835C71.6052 21.8835 70.7482 22.2339 70.1326 22.9347C69.5171 23.6259 69.2093 24.5398 69.2093 25.6761V39H63.3429V25.392C63.3429 24.322 63.0351 23.4697 62.4196 22.8352C61.8135 22.2008 61.0133 21.8835 60.019 21.8835C59.3467 21.8835 58.7406 22.054 58.2008 22.3949C57.6705 22.7263 57.2491 23.1951 56.9366 23.8011C56.6241 24.3977 56.4679 25.0985 56.4679 25.9034V39H50.4167Z" fill="#D91A5B"/>
<path d="M84.9011 47.1818V17.1818H90.867V20.8466H91.1369C91.402 20.2595 91.7856 19.6629 92.2875 19.0568C92.7988 18.4413 93.4617 17.9299 94.2761 17.5227C95.1 17.1061 96.1227 16.8977 97.3443 16.8977C98.9352 16.8977 100.403 17.3144 101.748 18.1477C103.092 18.9716 104.167 20.2169 104.972 21.8835C105.777 23.5407 106.18 25.6193 106.18 28.1193C106.18 30.553 105.787 32.608 105.001 34.2841C104.224 35.9508 103.163 37.215 101.819 38.0767C100.483 38.929 98.9873 39.3551 97.3301 39.3551C96.1558 39.3551 95.1568 39.161 94.3329 38.7727C93.5185 38.3845 92.8509 37.8968 92.3301 37.3097C91.8092 36.7131 91.4115 36.1117 91.1369 35.5057H90.9522V47.1818H84.9011ZM90.8244 28.0909C90.8244 29.3883 91.0043 30.5199 91.3642 31.4858C91.724 32.4517 92.2449 33.2045 92.9267 33.7443C93.6085 34.2746 94.4371 34.5398 95.4125 34.5398C96.3973 34.5398 97.2306 34.2699 97.9125 33.7301C98.5943 33.1809 99.1104 32.4233 99.4608 31.4574C99.8206 30.482 100.001 29.3598 100.001 28.0909C100.001 26.8314 99.8253 25.7235 99.475 24.767C99.1246 23.8106 98.6085 23.0625 97.9267 22.5227C97.2449 21.983 96.4068 21.7131 95.4125 21.7131C94.4276 21.7131 93.5943 21.9735 92.9125 22.4943C92.2401 23.0152 91.724 23.7538 91.3642 24.7102C91.0043 25.6667 90.8244 26.7936 90.8244 28.0909Z" fill="#F8A12E"/>
<path d="M114.435 39.4119C113.043 39.4119 111.803 39.1705 110.714 38.6875C109.625 38.1951 108.763 37.4706 108.128 36.5142C107.503 35.5483 107.191 34.3456 107.191 32.9062C107.191 31.6941 107.413 30.6761 107.858 29.8523C108.304 29.0284 108.91 28.3655 109.677 27.8636C110.444 27.3617 111.315 26.983 112.29 26.7273C113.275 26.4716 114.307 26.2917 115.387 26.1875C116.656 26.0549 117.679 25.9318 118.455 25.8182C119.232 25.6951 119.795 25.5152 120.145 25.2784C120.496 25.0417 120.671 24.6913 120.671 24.2273V24.142C120.671 23.2424 120.387 22.5464 119.819 22.054C119.26 21.5616 118.465 21.3153 117.432 21.3153C116.343 21.3153 115.477 21.5568 114.833 22.0398C114.189 22.5133 113.763 23.1098 113.555 23.8295L107.958 23.375C108.242 22.0492 108.801 20.9034 109.634 19.9375C110.467 18.9621 111.542 18.214 112.858 17.6932C114.184 17.1629 115.718 16.8977 117.461 16.8977C118.673 16.8977 119.833 17.0398 120.941 17.3239C122.058 17.608 123.048 18.0483 123.91 18.6449C124.781 19.2415 125.467 20.0085 125.969 20.946C126.471 21.8741 126.722 22.9867 126.722 24.2841V39H120.983V35.9744H120.813C120.463 36.6562 119.994 37.2576 119.407 37.7784C118.82 38.2898 118.114 38.6922 117.29 38.9858C116.466 39.2699 115.515 39.4119 114.435 39.4119ZM116.168 35.2358C117.058 35.2358 117.844 35.0606 118.526 34.7102C119.208 34.3504 119.743 33.8674 120.131 33.2614C120.519 32.6553 120.714 31.9687 120.714 31.2017V28.8864C120.524 29.0095 120.264 29.1231 119.932 29.2273C119.61 29.322 119.246 29.4119 118.839 29.4972C118.431 29.5729 118.024 29.6439 117.617 29.7102C117.21 29.767 116.84 29.8191 116.509 29.8665C115.799 29.9706 115.179 30.1364 114.648 30.3636C114.118 30.5909 113.706 30.8987 113.412 31.2869C113.119 31.6657 112.972 32.1392 112.972 32.7074C112.972 33.5312 113.27 34.161 113.867 34.5966C114.473 35.0227 115.24 35.2358 116.168 35.2358Z" fill="#3AB54A"/>
<path d="M139.275 39.4261C137.04 39.4261 135.117 38.9527 133.508 38.0057C131.907 37.0492 130.676 35.7235 129.814 34.0284C128.962 32.3333 128.536 30.3826 128.536 28.1761C128.536 25.9413 128.967 23.9811 129.829 22.2955C130.7 20.6004 131.936 19.2794 133.536 18.3324C135.136 17.3759 137.04 16.8977 139.246 16.8977C141.15 16.8977 142.816 17.2434 144.246 17.9347C145.676 18.6259 146.808 19.5966 147.641 20.8466C148.474 22.0966 148.934 23.5644 149.019 25.25H143.309C143.148 24.161 142.722 23.285 142.03 22.6222C141.349 21.9498 140.454 21.6136 139.346 21.6136C138.408 21.6136 137.589 21.8693 136.888 22.3807C136.197 22.8826 135.657 23.6165 135.269 24.5824C134.881 25.5483 134.687 26.7178 134.687 28.0909C134.687 29.483 134.876 30.6667 135.255 31.642C135.643 32.6174 136.188 33.3608 136.888 33.8722C137.589 34.3835 138.408 34.6392 139.346 34.6392C140.037 34.6392 140.657 34.4972 141.206 34.2131C141.765 33.929 142.224 33.517 142.584 32.9773C142.954 32.428 143.195 31.7699 143.309 31.0028H149.019C148.924 32.6695 148.47 34.1373 147.655 35.4062C146.85 36.6657 145.738 37.6506 144.317 38.3608C142.897 39.071 141.216 39.4261 139.275 39.4261Z" fill="#3A8CCB"/>
<path d="M162.498 17.1818V21.7273H149.359V17.1818H162.498ZM152.342 11.9545H158.393V32.2955C158.393 32.8542 158.479 33.2898 158.649 33.6023C158.819 33.9053 159.056 34.1184 159.359 34.2415C159.672 34.3646 160.032 34.4261 160.439 34.4261C160.723 34.4261 161.007 34.4025 161.291 34.3551C161.575 34.2983 161.793 34.2557 161.944 34.2273L162.896 38.7301C162.593 38.8248 162.167 38.9337 161.618 39.0568C161.068 39.1894 160.401 39.2699 159.615 39.2983C158.157 39.3551 156.878 39.161 155.78 38.7159C154.691 38.2708 153.843 37.5795 153.237 36.642C152.631 35.7045 152.333 34.5208 152.342 33.0909V11.9545Z" fill="#652D91"/>
<path d="M170.5 44.1591V17.9091H174.129V21.0039H174.44C174.656 20.6062 174.966 20.1463 175.372 19.6243C175.778 19.1023 176.342 18.6465 177.063 18.2571C177.784 17.8594 178.736 17.6605 179.921 17.6605C181.463 17.6605 182.838 18.05 184.048 18.8288C185.258 19.6077 186.206 20.7305 186.894 22.1971C187.59 23.6637 187.938 25.4286 187.938 27.4918C187.938 29.555 187.594 31.3241 186.906 32.799C186.219 34.2656 185.274 35.3967 184.073 36.1921C182.871 36.9793 181.5 37.3729 179.959 37.3729C178.799 37.3729 177.85 37.1781 177.112 36.7887C176.383 36.3993 175.811 35.9435 175.397 35.4215C174.983 34.8995 174.664 34.4355 174.44 34.0295H174.216V44.1591H170.5ZM174.142 27.4545C174.142 28.7969 174.337 29.9735 174.726 30.9844C175.115 31.9953 175.679 32.7866 176.416 33.3583C177.154 33.9218 178.057 34.2035 179.126 34.2035C180.236 34.2035 181.164 33.9093 181.91 33.321C182.656 32.7244 183.219 31.9165 183.6 30.8974C183.99 29.8782 184.184 28.7306 184.184 27.4545C184.184 26.1951 183.994 25.064 183.613 24.0614C183.24 23.0588 182.676 22.2675 181.922 21.6875C181.177 21.1075 180.244 20.8175 179.126 20.8175C178.049 20.8175 177.137 21.0951 176.392 21.6502C175.654 22.2054 175.095 22.9801 174.714 23.9744C174.332 24.9687 174.142 26.1288 174.142 27.4545ZM194.068 11.5455V37H190.352V11.5455H194.068ZM202.873 37.4226C201.664 37.4226 200.57 37.1989 199.592 36.7514C198.614 36.2957 197.84 35.637 197.268 34.7752C196.704 33.9135 196.423 32.857 196.423 31.6058C196.423 30.5286 196.63 29.642 197.044 28.946C197.458 28.25 198.018 27.699 198.722 27.293C199.426 26.887 200.214 26.5804 201.084 26.3732C201.954 26.1661 202.84 26.0086 203.743 25.9009C204.887 25.7683 205.815 25.6606 206.527 25.5778C207.24 25.4866 207.758 25.3416 208.081 25.1428C208.404 24.9439 208.566 24.6207 208.566 24.1733V24.0863C208.566 23.0008 208.259 22.1598 207.646 21.5632C207.041 20.9666 206.138 20.6683 204.937 20.6683C203.685 20.6683 202.699 20.9459 201.978 21.5011C201.266 22.0479 200.773 22.657 200.499 23.3281L197.007 22.5327C197.421 21.3726 198.026 20.4363 198.821 19.7237C199.625 19.0028 200.549 18.4808 201.593 18.1577C202.637 17.8262 203.735 17.6605 204.887 17.6605C205.649 17.6605 206.457 17.7517 207.31 17.9339C208.172 18.108 208.976 18.4311 209.722 18.9034C210.476 19.3757 211.093 20.051 211.574 20.9293C212.054 21.7994 212.294 22.9304 212.294 24.3224V37H208.665V34.3899H208.516C208.276 34.8705 207.915 35.3428 207.435 35.8068C206.954 36.2708 206.337 36.6561 205.583 36.9627C204.829 37.2693 203.926 37.4226 202.873 37.4226ZM203.681 34.4396C204.709 34.4396 205.587 34.2366 206.316 33.8306C207.054 33.4246 207.613 32.8943 207.994 32.2397C208.383 31.5768 208.578 30.8684 208.578 30.1143V27.6534C208.446 27.786 208.189 27.9103 207.808 28.0263C207.435 28.134 207.008 28.2293 206.527 28.3121C206.047 28.3867 205.579 28.4571 205.123 28.5234C204.667 28.5814 204.286 28.6312 203.979 28.6726C203.259 28.7637 202.6 28.917 202.003 29.1325C201.415 29.3479 200.943 29.6586 200.586 30.0646C200.238 30.4624 200.064 30.9927 200.064 31.6555C200.064 32.5753 200.404 33.2713 201.084 33.7436C201.763 34.2076 202.629 34.4396 203.681 34.4396ZM219.211 25.6648V37H215.494V17.9091H219.061V21.0163H219.298C219.737 20.0054 220.424 19.1934 221.361 18.5803C222.305 17.9671 223.494 17.6605 224.928 17.6605C226.229 17.6605 227.368 17.9339 228.346 18.4808C229.324 19.0194 230.082 19.8232 230.62 20.892C231.159 21.9609 231.428 23.2826 231.428 24.8569V37H227.712V25.3043C227.712 23.9206 227.352 22.8393 226.631 22.0604C225.91 21.2732 224.92 20.8796 223.66 20.8796C222.798 20.8796 222.032 21.0661 221.361 21.4389C220.698 21.8118 220.172 22.3587 219.782 23.0795C219.401 23.7921 219.211 24.6539 219.211 25.6648Z" fill="#585858"/>
<path d="M41.0934 9.08563C40.6232 9.21556 40.2953 9.39498 39.9488 9.72289C38.5567 11.0222 38.9341 13.2557 40.685 14.0847C41.0748 14.2703 41.1553 14.2827 41.7554 14.2827C42.3555 14.2827 42.436 14.2703 42.8257 14.0847C44.5767 13.2557 44.9541 11.0222 43.562 9.72289C42.8876 9.09182 41.9596 8.85671 41.0934 9.08563Z" fill="#585858"/>
<path d="M38.5676 15.1861C37.7324 15.3099 36.7301 16.0214 36.3527 16.7576C35.9938 17.4753 36 17.3516 36 22.0723V26.4094L36.1423 26.6507C36.3032 26.9415 36.7239 27.1827 37.0456 27.1827C37.3983 27.1766 37.7633 26.9786 37.9613 26.6816L38.1345 26.4156L38.1531 22.5796C38.1655 19.9192 38.1902 18.7189 38.2397 18.6632C38.3263 18.5519 38.5057 18.5642 38.6233 18.6818C38.7099 18.7684 38.7223 19.7336 38.7223 28.414V38.0471L38.9265 38.3812C39.0811 38.6411 39.1987 38.7586 39.4585 38.8886C39.8978 39.1175 40.2567 39.1175 40.7083 38.8886C41.1167 38.6844 41.358 38.3565 41.4446 37.8925C41.4817 37.6883 41.5064 35.7394 41.5064 32.8129C41.5064 28.6243 41.5188 28.0551 41.5992 27.9871C41.6735 27.9252 41.7292 27.9252 41.8467 27.9747L42.0014 28.0489V32.8005C42.0014 35.7332 42.0262 37.6883 42.0633 37.8925C42.1499 38.3565 42.3912 38.6844 42.7995 38.8948C43.2512 39.1175 43.61 39.1175 44.0493 38.8886C44.3092 38.7586 44.4267 38.6411 44.5876 38.3812L44.7856 38.0471V28.414C44.7856 19.7336 44.7979 18.7684 44.8846 18.6818C45.0021 18.5642 45.1815 18.5519 45.2681 18.6632C45.3176 18.7189 45.3424 19.9192 45.3548 22.5796L45.3733 26.4156L45.5466 26.6816C45.7445 26.9786 46.1096 27.1766 46.4622 27.1827C46.784 27.1827 47.2047 26.9415 47.3655 26.6507L47.5078 26.4094V22.0723C47.5078 18.2673 47.4955 17.6981 47.4089 17.4011C47.2542 16.8814 47.05 16.5225 46.6664 16.1142C46.2271 15.6378 45.5218 15.2728 44.8784 15.18C44.3525 15.1057 39.0811 15.1119 38.5676 15.1861Z" fill="#585858"/>
</svg>
