<svg width="644" height="715" viewBox="0 0 644 715" fill="none" xmlns="http://www.w3.org/2000/svg">
<g filter="url(#filter0_d_1374_2870)">
<rect x="52" y="6" width="558" height="668" rx="10" fill="#C2D7C5"/>
</g>
<path d="M138.317 364V323.273H140.803V342.463H165.343V323.273H167.829V364H165.343V344.77H140.803V364H138.317ZM189.823 364.636C187.065 364.636 184.666 363.954 182.624 362.588C180.583 361.223 179.005 359.353 177.891 356.98C176.778 354.607 176.221 351.902 176.221 348.866C176.221 345.817 176.778 343.099 177.891 340.713C179.018 338.327 180.563 336.444 182.525 335.065C184.487 333.687 186.727 332.997 189.246 332.997C190.957 332.997 192.574 333.342 194.099 334.031C195.636 334.707 196.989 335.688 198.155 336.974C199.335 338.26 200.257 339.812 200.92 341.628C201.596 343.444 201.934 345.486 201.934 347.753V349.264H177.752V347.057H199.508C199.508 344.843 199.057 342.848 198.155 341.071C197.254 339.295 196.028 337.883 194.476 336.835C192.925 335.788 191.182 335.264 189.246 335.264C187.218 335.264 185.408 335.834 183.817 336.974C182.24 338.101 180.987 339.626 180.059 341.548C179.144 343.471 178.667 345.618 178.627 347.991V348.986C178.627 351.531 179.071 353.818 179.959 355.847C180.861 357.862 182.147 359.459 183.817 360.639C185.488 361.806 187.49 362.389 189.823 362.389C191.493 362.389 192.919 362.111 194.099 361.554C195.292 360.984 196.266 360.295 197.022 359.486C197.778 358.677 198.348 357.895 198.732 357.139L200.94 358.034C200.475 359.055 199.753 360.076 198.772 361.097C197.804 362.104 196.571 362.946 195.073 363.622C193.588 364.298 191.838 364.636 189.823 364.636ZM211.872 323.273V364H209.446V323.273H211.872ZM223.501 323.273V364H221.075V323.273H223.501ZM244.059 364.636C241.54 364.636 239.299 363.96 237.337 362.608C235.375 361.242 233.83 359.366 232.704 356.98C231.577 354.594 231.013 351.876 231.013 348.827C231.013 345.764 231.577 343.046 232.704 340.673C233.83 338.287 235.375 336.411 237.337 335.045C239.299 333.68 241.54 332.997 244.059 332.997C246.578 332.997 248.818 333.68 250.78 335.045C252.742 336.411 254.287 338.287 255.414 340.673C256.541 343.06 257.104 345.777 257.104 348.827C257.104 351.876 256.541 354.594 255.414 356.98C254.287 359.366 252.742 361.242 250.78 362.608C248.818 363.96 246.578 364.636 244.059 364.636ZM244.059 362.389C246.193 362.389 248.056 361.786 249.647 360.58C251.251 359.373 252.491 357.742 253.366 355.688C254.254 353.633 254.698 351.346 254.698 348.827C254.698 346.308 254.254 344.027 253.366 341.986C252.477 339.931 251.238 338.3 249.647 337.094C248.056 335.874 246.193 335.264 244.059 335.264C241.924 335.264 240.062 335.874 238.471 337.094C236.88 338.3 235.64 339.931 234.752 341.986C233.864 344.027 233.42 346.308 233.42 348.827C233.42 351.346 233.857 353.633 234.732 355.688C235.62 357.742 236.86 359.373 238.451 360.58C240.055 361.786 241.924 362.389 244.059 362.389ZM269.394 358.432L269.036 360.52C268.798 361.885 268.493 363.423 268.121 365.134C267.763 366.857 267.392 368.514 267.008 370.105C266.623 371.696 266.272 372.975 265.954 373.943H264.065C264.25 372.989 264.476 371.815 264.741 370.423C265.019 369.045 265.304 367.52 265.596 365.849C265.901 364.179 266.186 362.449 266.451 360.659L266.809 358.432H269.394ZM300.174 364L291.026 333.455H293.571L301.446 360.44H301.665L309.56 333.455H312.086L319.961 360.42H320.159L328.034 333.455H330.58L321.432 364H318.728L310.932 337.412H310.674L302.878 364H300.174ZM348.17 364.636C345.412 364.636 343.012 363.954 340.971 362.588C338.929 361.223 337.351 359.353 336.238 356.98C335.124 354.607 334.567 351.902 334.567 348.866C334.567 345.817 335.124 343.099 336.238 340.713C337.365 338.327 338.909 336.444 340.871 335.065C342.833 333.687 345.074 332.997 347.593 332.997C349.303 332.997 350.921 333.342 352.445 334.031C353.983 334.707 355.335 335.688 356.502 336.974C357.682 338.26 358.603 339.812 359.266 341.628C359.942 343.444 360.28 345.486 360.28 347.753V349.264H336.099V347.057H357.854C357.854 344.843 357.403 342.848 356.502 341.071C355.6 339.295 354.374 337.883 352.823 336.835C351.272 335.788 349.528 335.264 347.593 335.264C345.564 335.264 343.755 335.834 342.164 336.974C340.586 338.101 339.333 339.626 338.405 341.548C337.491 343.471 337.013 345.618 336.974 347.991V348.986C336.974 351.531 337.418 353.818 338.306 355.847C339.207 357.862 340.493 359.459 342.164 360.639C343.834 361.806 345.836 362.389 348.17 362.389C349.84 362.389 351.265 362.111 352.445 361.554C353.638 360.984 354.613 360.295 355.368 359.486C356.124 358.677 356.694 357.895 357.079 357.139L359.286 358.034C358.822 359.055 358.1 360.076 357.118 361.097C356.151 362.104 354.918 362.946 353.42 363.622C351.935 364.298 350.185 364.636 348.17 364.636ZM370.219 323.273V364H367.793V323.273H370.219ZM390.876 364.636C388.277 364.636 385.991 363.954 384.015 362.588C382.04 361.209 380.495 359.327 379.382 356.94C378.281 354.554 377.731 351.849 377.731 348.827C377.731 345.804 378.288 343.099 379.402 340.713C380.515 338.327 382.06 336.444 384.035 335.065C386.01 333.687 388.284 332.997 390.856 332.997C392.792 332.997 394.555 333.395 396.146 334.19C397.75 334.986 399.076 336.093 400.123 337.511C401.184 338.93 401.86 340.574 402.152 342.443H399.686C399.288 340.375 398.294 338.665 396.703 337.312C395.125 335.947 393.183 335.264 390.876 335.264C388.808 335.264 386.965 335.848 385.348 337.014C383.73 338.168 382.457 339.765 381.529 341.807C380.601 343.835 380.137 346.162 380.137 348.787C380.137 351.372 380.588 353.692 381.49 355.747C382.391 357.789 383.651 359.406 385.268 360.599C386.885 361.793 388.755 362.389 390.876 362.389C392.374 362.389 393.74 362.091 394.973 361.494C396.219 360.898 397.259 360.049 398.095 358.949C398.93 357.848 399.48 356.562 399.745 355.091H402.211C401.92 356.973 401.257 358.631 400.223 360.062C399.188 361.494 397.869 362.615 396.265 363.423C394.661 364.232 392.865 364.636 390.876 364.636ZM420.999 364.636C418.48 364.636 416.24 363.96 414.277 362.608C412.315 361.242 410.771 359.366 409.644 356.98C408.517 354.594 407.954 351.876 407.954 348.827C407.954 345.764 408.517 343.046 409.644 340.673C410.771 338.287 412.315 336.411 414.277 335.045C416.24 333.68 418.48 332.997 420.999 332.997C423.518 332.997 425.759 333.68 427.721 335.045C429.683 336.411 431.227 338.287 432.354 340.673C433.481 343.06 434.044 345.777 434.044 348.827C434.044 351.876 433.481 354.594 432.354 356.98C431.227 359.366 429.683 361.242 427.721 362.608C425.759 363.96 423.518 364.636 420.999 364.636ZM420.999 362.389C423.134 362.389 424.996 361.786 426.587 360.58C428.191 359.373 429.431 357.742 430.306 355.688C431.194 353.633 431.638 351.346 431.638 348.827C431.638 346.308 431.194 344.027 430.306 341.986C429.418 339.931 428.178 338.3 426.587 337.094C424.996 335.874 423.134 335.264 420.999 335.264C418.865 335.264 417.002 335.874 415.411 337.094C413.82 338.3 412.58 339.931 411.692 341.986C410.804 344.027 410.36 346.308 410.36 348.827C410.36 351.346 410.797 353.633 411.672 355.688C412.561 357.742 413.8 359.373 415.391 360.58C416.995 361.786 418.865 362.389 420.999 362.389ZM441.562 364V333.455H443.928V338.068H444.167C444.75 336.53 445.758 335.311 447.19 334.409C448.621 333.508 450.345 333.057 452.36 333.057C454.574 333.057 456.357 333.587 457.709 334.648C459.075 335.708 460.056 337.147 460.653 338.963H460.871C461.468 337.173 462.535 335.741 464.073 334.668C465.624 333.594 467.533 333.057 469.8 333.057C472.757 333.057 475.011 333.991 476.562 335.861C478.126 337.717 478.908 340.262 478.908 343.497V364H476.482V343.497C476.482 340.952 475.872 338.95 474.653 337.491C473.433 336.033 471.643 335.304 469.283 335.304C466.764 335.304 464.829 336.093 463.477 337.67C462.124 339.248 461.448 341.257 461.448 343.696V364H459.022V343.338C459.022 340.965 458.425 339.036 457.232 337.551C456.039 336.053 454.249 335.304 451.863 335.304C450.245 335.304 448.847 335.675 447.667 336.418C446.5 337.16 445.592 338.181 444.942 339.48C444.306 340.779 443.988 342.271 443.988 343.955V364H441.562ZM500.048 364.636C497.29 364.636 494.891 363.954 492.849 362.588C490.807 361.223 489.23 359.353 488.116 356.98C487.002 354.607 486.445 351.902 486.445 348.866C486.445 345.817 487.002 343.099 488.116 340.713C489.243 338.327 490.787 336.444 492.749 335.065C494.712 333.687 496.952 332.997 499.471 332.997C501.181 332.997 502.799 333.342 504.323 334.031C505.861 334.707 507.213 335.688 508.38 336.974C509.56 338.26 510.481 339.812 511.144 341.628C511.82 343.444 512.159 345.486 512.159 347.753V349.264H487.977V347.057H509.732C509.732 344.843 509.282 342.848 508.38 341.071C507.479 339.295 506.252 337.883 504.701 336.835C503.15 335.788 501.407 335.264 499.471 335.264C497.443 335.264 495.633 335.834 494.042 336.974C492.464 338.101 491.212 339.626 490.284 341.548C489.369 343.471 488.891 345.618 488.852 347.991V348.986C488.852 351.531 489.296 353.818 490.184 355.847C491.086 357.862 492.372 359.459 494.042 360.639C495.712 361.806 497.714 362.389 500.048 362.389C501.718 362.389 503.143 362.111 504.323 361.554C505.516 360.984 506.491 360.295 507.247 359.486C508.002 358.677 508.572 357.895 508.957 357.139L511.164 358.034C510.7 359.055 509.978 360.076 508.997 361.097C508.029 362.104 506.796 362.946 505.298 363.622C503.813 364.298 502.063 364.636 500.048 364.636ZM523.449 323.273L523.31 352.128H520.924L520.784 323.273H523.449ZM522.117 364.259C521.52 364.259 521.01 364.053 520.586 363.642C520.175 363.218 519.969 362.707 519.969 362.111C519.969 361.527 520.181 361.024 520.605 360.599C521.03 360.175 521.533 359.963 522.117 359.963C522.7 359.963 523.204 360.175 523.628 360.599C524.052 361.024 524.265 361.527 524.265 362.111C524.265 362.509 524.165 362.873 523.966 363.205C523.781 363.523 523.522 363.781 523.191 363.98C522.872 364.166 522.515 364.259 522.117 364.259Z" fill="black"/>
<g filter="url(#filter1_d_1374_2870)">
<circle cx="81" cy="105" r="75" fill="#D91A5B"/>
</g>
<g filter="url(#filter2_d_1374_2870)">
<circle cx="467.5" cy="156.5" r="88.5" fill="#652D91"/>
</g>
<g filter="url(#filter3_d_1374_2870)">
<circle cx="562.5" cy="633.5" r="67.5" fill="#F8A12E"/>
</g>
<g filter="url(#filter4_d_1374_2870)">
<circle cx="131" cy="499" r="52" fill="#3B8CCB"/>
</g>
<g filter="url(#filter5_d_1374_2870)">
<circle cx="435" cy="554" r="39" fill="#39AE49"/>
</g>
<defs>
<filter id="filter0_d_1374_2870" x="46" y="0" width="578" height="688" filterUnits="userSpaceOnUse" color-interpolation-filters="sRGB">
<feFlood flood-opacity="0" result="BackgroundImageFix"/>
<feColorMatrix in="SourceAlpha" type="matrix" values="0 0 0 0 0 0 0 0 0 0 0 0 0 0 0 0 0 0 127 0" result="hardAlpha"/>
<feOffset dx="4" dy="4"/>
<feGaussianBlur stdDeviation="5"/>
<feComposite in2="hardAlpha" operator="out"/>
<feColorMatrix type="matrix" values="0 0 0 0 0 0 0 0 0 0 0 0 0 0 0 0 0 0 0.25 0"/>
<feBlend mode="normal" in2="BackgroundImageFix" result="effect1_dropShadow_1374_2870"/>
<feBlend mode="normal" in="SourceGraphic" in2="effect1_dropShadow_1374_2870" result="shape"/>
</filter>
<filter id="filter1_d_1374_2870" x="0" y="24" width="170" height="170" filterUnits="userSpaceOnUse" color-interpolation-filters="sRGB">
<feFlood flood-opacity="0" result="BackgroundImageFix"/>
<feColorMatrix in="SourceAlpha" type="matrix" values="0 0 0 0 0 0 0 0 0 0 0 0 0 0 0 0 0 0 127 0" result="hardAlpha"/>
<feOffset dx="4" dy="4"/>
<feGaussianBlur stdDeviation="5"/>
<feComposite in2="hardAlpha" operator="out"/>
<feColorMatrix type="matrix" values="0 0 0 0 0 0 0 0 0 0 0 0 0 0 0 0 0 0 0.25 0"/>
<feBlend mode="normal" in2="BackgroundImageFix" result="effect1_dropShadow_1374_2870"/>
<feBlend mode="normal" in="SourceGraphic" in2="effect1_dropShadow_1374_2870" result="shape"/>
</filter>
<filter id="filter2_d_1374_2870" x="373" y="62" width="197" height="197" filterUnits="userSpaceOnUse" color-interpolation-filters="sRGB">
<feFlood flood-opacity="0" result="BackgroundImageFix"/>
<feColorMatrix in="SourceAlpha" type="matrix" values="0 0 0 0 0 0 0 0 0 0 0 0 0 0 0 0 0 0 127 0" result="hardAlpha"/>
<feOffset dx="4" dy="4"/>
<feGaussianBlur stdDeviation="5"/>
<feComposite in2="hardAlpha" operator="out"/>
<feColorMatrix type="matrix" values="0 0 0 0 0 0 0 0 0 0 0 0 0 0 0 0 0 0 0.25 0"/>
<feBlend mode="normal" in2="BackgroundImageFix" result="effect1_dropShadow_1374_2870"/>
<feBlend mode="normal" in="SourceGraphic" in2="effect1_dropShadow_1374_2870" result="shape"/>
</filter>
<filter id="filter3_d_1374_2870" x="489" y="560" width="155" height="155" filterUnits="userSpaceOnUse" color-interpolation-filters="sRGB">
<feFlood flood-opacity="0" result="BackgroundImageFix"/>
<feColorMatrix in="SourceAlpha" type="matrix" values="0 0 0 0 0 0 0 0 0 0 0 0 0 0 0 0 0 0 127 0" result="hardAlpha"/>
<feOffset dx="4" dy="4"/>
<feGaussianBlur stdDeviation="5"/>
<feComposite in2="hardAlpha" operator="out"/>
<feColorMatrix type="matrix" values="0 0 0 0 0 0 0 0 0 0 0 0 0 0 0 0 0 0 0.25 0"/>
<feBlend mode="normal" in2="BackgroundImageFix" result="effect1_dropShadow_1374_2870"/>
<feBlend mode="normal" in="SourceGraphic" in2="effect1_dropShadow_1374_2870" result="shape"/>
</filter>
<filter id="filter4_d_1374_2870" x="73" y="441" width="124" height="124" filterUnits="userSpaceOnUse" color-interpolation-filters="sRGB">
<feFlood flood-opacity="0" result="BackgroundImageFix"/>
<feColorMatrix in="SourceAlpha" type="matrix" values="0 0 0 0 0 0 0 0 0 0 0 0 0 0 0 0 0 0 127 0" result="hardAlpha"/>
<feOffset dx="4" dy="4"/>
<feGaussianBlur stdDeviation="5"/>
<feComposite in2="hardAlpha" operator="out"/>
<feColorMatrix type="matrix" values="0 0 0 0 0 0 0 0 0 0 0 0 0 0 0 0 0 0 0.25 0"/>
<feBlend mode="normal" in2="BackgroundImageFix" result="effect1_dropShadow_1374_2870"/>
<feBlend mode="normal" in="SourceGraphic" in2="effect1_dropShadow_1374_2870" result="shape"/>
</filter>
<filter id="filter5_d_1374_2870" x="390" y="509" width="98" height="98" filterUnits="userSpaceOnUse" color-interpolation-filters="sRGB">
<feFlood flood-opacity="0" result="BackgroundImageFix"/>
<feColorMatrix in="SourceAlpha" type="matrix" values="0 0 0 0 0 0 0 0 0 0 0 0 0 0 0 0 0 0 127 0" result="hardAlpha"/>
<feOffset dx="4" dy="4"/>
<feGaussianBlur stdDeviation="5"/>
<feComposite in2="hardAlpha" operator="out"/>
<feColorMatrix type="matrix" values="0 0 0 0 0 0 0 0 0 0 0 0 0 0 0 0 0 0 0.25 0"/>
<feBlend mode="normal" in2="BackgroundImageFix" result="effect1_dropShadow_1374_2870"/>
<feBlend mode="normal" in="SourceGraphic" in2="effect1_dropShadow_1374_2870" result="shape"/>
</filter>
</defs>
</svg>
