<svg width="1340" height="47" viewBox="0 0 1340 47" fill="none" xmlns="http://www.w3.org/2000/svg">
<g clip-path="url(#clip0_882_2255)">
<path d="M55.9791 16.2283C55.9365 15.7987 55.7536 15.4648 55.4305 15.2269C55.1073 14.989 54.6687 14.87 54.1148 14.87C53.7383 14.87 53.4205 14.9233 53.1613 15.0298C52.9021 15.1328 52.7032 15.2766 52.5647 15.4613C52.4298 15.646 52.3623 15.8555 52.3623 16.0898C52.3552 16.2852 52.396 16.4556 52.4848 16.6012C52.5771 16.7468 52.7032 16.8729 52.863 16.9794C53.0228 17.0824 53.2075 17.1729 53.417 17.2511C53.6265 17.3256 53.8502 17.3896 54.0881 17.4428L55.0682 17.6772C55.5441 17.7837 55.9809 17.9258 56.3786 18.1033C56.7763 18.2809 57.1208 18.4993 57.412 18.7585C57.7032 19.0178 57.9287 19.3232 58.0885 19.6747C58.2518 20.0263 58.3353 20.4293 58.3388 20.8839C58.3353 21.5515 58.1648 22.1303 57.8275 22.6204C57.4937 23.1069 57.0107 23.4851 56.3786 23.755C55.7501 24.0213 54.9919 24.1545 54.1041 24.1545C53.2234 24.1545 52.4564 24.0195 51.803 23.7496C51.1531 23.4798 50.6453 23.0803 50.2795 22.5511C49.9173 22.0185 49.7273 21.3597 49.7096 20.5749H51.9415C51.9663 20.9407 52.0711 21.2461 52.2557 21.4911C52.444 21.7326 52.6943 21.9155 53.0068 22.0398C53.3229 22.1605 53.6798 22.2209 54.0775 22.2209C54.4681 22.2209 54.8072 22.1641 55.0949 22.0504C55.3861 21.9368 55.6116 21.7788 55.7714 21.5763C55.9312 21.3739 56.0111 21.1413 56.0111 20.8786C56.0111 20.6335 55.9383 20.4276 55.7927 20.2607C55.6506 20.0937 55.4411 19.9517 55.1641 19.8345C54.8907 19.7173 54.5551 19.6108 54.1574 19.5149L52.9695 19.2166C52.0498 18.9929 51.3236 18.6431 50.7909 18.1673C50.2582 17.6914 49.9937 17.0504 49.9972 16.2443C49.9937 15.5838 50.1695 15.0067 50.5246 14.5131C50.8832 14.0195 51.3751 13.6342 52.0001 13.3572C52.6251 13.0803 53.3353 12.9418 54.1307 12.9418C54.9404 12.9418 55.6471 13.0803 56.2508 13.3572C56.858 13.6342 57.3303 14.0195 57.6677 14.5131C58.005 15.0067 58.179 15.5785 58.1897 16.2283H55.9791ZM59.6652 24V13.0909H61.9717V17.592H66.6539V13.0909H68.955V24H66.6539V19.4936H61.9717V24H59.6652ZM80.6565 18.5455C80.6565 19.7351 80.431 20.7472 79.98 21.5817C79.5326 22.4162 78.9218 23.0536 78.1476 23.494C77.377 23.9308 76.5106 24.1491 75.5482 24.1491C74.5787 24.1491 73.7087 23.929 72.9381 23.4886C72.1675 23.0483 71.5585 22.4109 71.1111 21.5763C70.6636 20.7418 70.4399 19.7315 70.4399 18.5455C70.4399 17.3558 70.6636 16.3438 71.1111 15.5092C71.5585 14.6747 72.1675 14.0391 72.9381 13.6023C73.7087 13.1619 74.5787 12.9418 75.5482 12.9418C76.5106 12.9418 77.377 13.1619 78.1476 13.6023C78.9218 14.0391 79.5326 14.6747 79.98 15.5092C80.431 16.3438 80.6565 17.3558 80.6565 18.5455ZM78.3181 18.5455C78.3181 17.7749 78.2027 17.125 77.9719 16.5959C77.7446 16.0668 77.4232 15.6655 77.0077 15.392C76.5922 15.1186 76.1057 14.9819 75.5482 14.9819C74.9907 14.9819 74.5042 15.1186 74.0887 15.392C73.6732 15.6655 73.35 16.0668 73.1192 16.5959C72.892 17.125 72.7783 17.7749 72.7783 18.5455C72.7783 19.3161 72.892 19.9659 73.1192 20.495C73.35 21.0241 73.6732 21.4254 74.0887 21.6989C74.5042 21.9723 74.9907 22.109 75.5482 22.109C76.1057 22.109 76.5922 21.9723 77.0077 21.6989C77.4232 21.4254 77.7446 21.0241 77.9719 20.495C78.2027 19.9659 78.3181 19.3161 78.3181 18.5455ZM82.1401 24V13.0909H86.444C87.2679 13.0909 87.971 13.2383 88.5534 13.533C89.1393 13.8242 89.585 14.2379 89.8904 14.7741C90.1994 15.3068 90.3538 15.9336 90.3538 16.6545C90.3538 17.3789 90.1976 18.0021 89.8851 18.5241C89.5726 19.0426 89.1198 19.4403 88.5268 19.7173C87.9373 19.9943 87.2235 20.1328 86.3854 20.1328H83.5037V18.2791H86.0126C86.4529 18.2791 86.8187 18.2187 87.1099 18.098C87.4011 17.9773 87.6177 17.7962 87.7597 17.5547C87.9053 17.3132 87.9781 17.0131 87.9781 16.6545C87.9781 16.2923 87.9053 15.9869 87.7597 15.7383C87.6177 15.4897 87.3993 15.3015 87.1045 15.1737C86.8133 15.0423 86.4458 14.9766 86.0019 14.9766H84.4465V24H82.1401ZM88.0314 19.0355L90.7427 24H88.1965L85.5438 19.0355H88.0314ZM91.3433 14.9925V13.0909H100.303V14.9925H96.963V24H94.6832V14.9925H91.3433ZM106.154 17.6452V19.4457H101.179V17.6452H106.154ZM107.036 14.9925V13.0909H115.995V14.9925H112.656V24H110.376V14.9925H107.036ZM117.246 24V13.0909H124.597V14.9925H119.552V17.592H124.219V19.4936H119.552V22.0984H124.618V24H117.246ZM126.205 24V13.0909H130.509C131.333 13.0909 132.036 13.2383 132.619 13.533C133.205 13.8242 133.65 14.2379 133.956 14.7741C134.265 15.3068 134.419 15.9336 134.419 16.6545C134.419 17.3789 134.263 18.0021 133.951 18.5241C133.638 19.0426 133.185 19.4403 132.592 19.7173C132.003 19.9943 131.289 20.1328 130.451 20.1328H127.569V18.2791H130.078C130.518 18.2791 130.884 18.2187 131.175 18.098C131.466 17.9773 131.683 17.7962 131.825 17.5547C131.971 17.3132 132.044 17.0131 132.044 16.6545C132.044 16.2923 131.971 15.9869 131.825 15.7383C131.683 15.4897 131.465 15.3015 131.17 15.1737C130.879 15.0423 130.511 14.9766 130.067 14.9766H128.512V24H126.205ZM132.097 19.0355L134.808 24H132.262L129.609 19.0355H132.097ZM135.824 13.0909H138.669L141.673 20.4205H141.801L144.805 13.0909H147.65V24H145.412V16.8995H145.322L142.499 23.9467H140.975L138.152 16.8729H138.061V24H135.824V13.0909ZM154.878 13.0909V24H152.571V13.0909H154.878ZM156.551 13.0909H159.395L162.399 20.4205H162.527L165.531 13.0909H168.376V24H166.139V16.8995H166.048L163.225 23.9467H161.702L158.878 16.8729H158.788V24H156.551V13.0909ZM170.051 24V13.0909H174.355C175.183 13.0909 175.887 13.2489 176.47 13.565C177.052 13.8775 177.496 14.3125 177.802 14.87C178.11 15.424 178.265 16.0632 178.265 16.7876C178.265 17.5121 178.109 18.1513 177.796 18.7053C177.484 19.2592 177.031 19.6907 176.438 19.9996C175.848 20.3086 175.135 20.4631 174.297 20.4631H171.553V18.6147H173.924C174.368 18.6147 174.733 18.5384 175.021 18.3857C175.312 18.2294 175.529 18.0146 175.671 17.7411C175.816 17.4641 175.889 17.1463 175.889 16.7876C175.889 16.4254 175.816 16.1094 175.671 15.8395C175.529 15.5661 175.312 15.3548 175.021 15.2056C174.73 15.0529 174.36 14.9766 173.913 14.9766H172.358V24H170.051ZM180.159 24H177.687L181.453 13.0909H184.425L188.186 24H185.714L182.982 15.5838H182.897L180.159 24ZM180.004 19.712H185.842V21.5124H180.004V19.712ZM198.387 16.9102H196.054C196.011 16.6083 195.924 16.3402 195.793 16.1058C195.661 15.8679 195.493 15.6655 195.287 15.4986C195.081 15.3317 194.843 15.2038 194.573 15.1151C194.306 15.0263 194.017 14.9819 193.705 14.9819C193.14 14.9819 192.648 15.1222 192.229 15.4027C191.81 15.6797 191.485 16.0845 191.254 16.6172C191.023 17.1463 190.908 17.7891 190.908 18.5455C190.908 19.3232 191.023 19.9766 191.254 20.5057C191.489 21.0348 191.815 21.4343 192.234 21.7042C192.653 21.9741 193.138 22.109 193.689 22.109C193.997 22.109 194.283 22.0682 194.546 21.9865C194.812 21.9048 195.049 21.7859 195.255 21.6296C195.461 21.4698 195.631 21.2763 195.766 21.049C195.904 20.8217 196 20.5625 196.054 20.2713L198.387 20.282C198.326 20.7827 198.175 21.2656 197.934 21.7308C197.696 22.1925 197.375 22.6062 196.97 22.9719C196.569 23.3342 196.089 23.6218 195.532 23.8349C194.978 24.0444 194.351 24.1491 193.651 24.1491C192.678 24.1491 191.808 23.929 191.041 23.4886C190.278 23.0483 189.674 22.4109 189.23 21.5763C188.79 20.7418 188.57 19.7315 188.57 18.5455C188.57 17.3558 188.793 16.3438 189.241 15.5092C189.688 14.6747 190.295 14.0391 191.062 13.6023C191.83 13.1619 192.692 12.9418 193.651 12.9418C194.283 12.9418 194.869 13.0305 195.409 13.2081C195.952 13.3857 196.434 13.6449 196.853 13.9858C197.272 14.3232 197.613 14.7369 197.875 15.2269C198.142 15.717 198.312 16.2781 198.387 16.9102ZM199.4 14.9925V13.0909H208.36V14.9925H205.02V24H202.74V14.9925H199.4Z" fill="#839C86"/>
</g>
<path d="M330.996 12.0909H333.841L336.845 19.4205H336.973L339.977 12.0909H342.822V23H340.584V15.8995H340.494L337.671 22.9467H336.147L333.324 15.8729H333.234V23H330.996V12.0909ZM346.803 12.0909V23H344.497V12.0909H346.803ZM352.343 23H348.476V12.0909H352.375C353.472 12.0909 354.417 12.3093 355.209 12.7461C356.001 13.1793 356.61 13.8026 357.036 14.6158C357.466 15.429 357.681 16.402 357.681 17.5348C357.681 18.6712 357.466 19.6477 357.036 20.4645C356.61 21.2812 355.997 21.908 355.198 22.3448C354.403 22.7816 353.451 23 352.343 23ZM350.782 21.0238H352.247C352.929 21.0238 353.503 20.9031 353.968 20.6616C354.437 20.4165 354.788 20.0384 355.023 19.527C355.26 19.0121 355.379 18.348 355.379 17.5348C355.379 16.7287 355.26 16.07 355.023 15.5586C354.788 15.0472 354.438 14.6708 353.973 14.4293C353.508 14.1879 352.934 14.0671 352.253 14.0671H350.782V21.0238ZM364.219 16.6452V18.4457H359.244V16.6452H364.219ZM365.101 13.9925V12.0909H374.06V13.9925H370.72V23H368.441V13.9925H365.101ZM375.311 23V12.0909H382.662V13.9925H377.617V16.592H382.283V18.4936H377.617V21.0984H382.683V23H375.311ZM384.27 23V12.0909H388.574C389.398 12.0909 390.101 12.2383 390.684 12.533C391.27 12.8242 391.715 13.2379 392.021 13.7741C392.33 14.3068 392.484 14.9336 392.484 15.6545C392.484 16.3789 392.328 17.0021 392.015 17.5241C391.703 18.0426 391.25 18.4403 390.657 18.7173C390.068 18.9943 389.354 19.1328 388.516 19.1328H385.634V17.2791H388.143C388.583 17.2791 388.949 17.2187 389.24 17.098C389.531 16.9773 389.748 16.7962 389.89 16.5547C390.036 16.3132 390.108 16.0131 390.108 15.6545C390.108 15.2923 390.036 14.9869 389.89 14.7383C389.748 14.4897 389.53 14.3015 389.235 14.1737C388.944 14.0423 388.576 13.9766 388.132 13.9766H386.577V23H384.27ZM390.162 18.0355L392.873 23H390.327L387.674 18.0355H390.162ZM393.889 12.0909H396.734L399.738 19.4205H399.866L402.87 12.0909H405.714V23H403.477V15.8995H403.387L400.563 22.9467H399.04L396.217 15.8729H396.126V23H393.889V12.0909ZM412.943 12.0909V23H410.636V12.0909H412.943ZM414.615 12.0909H417.46L420.464 19.4205H420.592L423.596 12.0909H426.441V23H424.204V15.8995H424.113L421.29 22.9467H419.766L416.943 15.8729H416.853V23H414.615V12.0909ZM428.116 23V12.0909H432.42C433.247 12.0909 433.952 12.2489 434.535 12.565C435.117 12.8775 435.561 13.3125 435.866 13.87C436.175 14.424 436.33 15.0632 436.33 15.7876C436.33 16.5121 436.174 17.1513 435.861 17.7053C435.549 18.2592 435.096 18.6907 434.503 18.9996C433.913 19.3086 433.199 19.4631 432.361 19.4631H429.618V17.6147H431.989C432.432 17.6147 432.798 17.5384 433.086 17.3857C433.377 17.2294 433.594 17.0146 433.736 16.7411C433.881 16.4641 433.954 16.1463 433.954 15.7876C433.954 15.4254 433.881 15.1094 433.736 14.8395C433.594 14.5661 433.377 14.3548 433.086 14.2056C432.795 14.0529 432.425 13.9766 431.978 13.9766H430.422V23H428.116ZM438.223 23H435.752L439.518 12.0909H442.49L446.251 23H443.779L441.047 14.5838H440.961L438.223 23ZM438.069 18.712H443.907V20.5124H438.069V18.712ZM456.452 15.9102H454.118C454.076 15.6083 453.989 15.3402 453.857 15.1058C453.726 14.8679 453.557 14.6655 453.351 14.4986C453.145 14.3317 452.907 14.2038 452.638 14.1151C452.371 14.0263 452.082 13.9819 451.769 13.9819C451.205 13.9819 450.713 14.1222 450.294 14.4027C449.875 14.6797 449.55 15.0845 449.319 15.6172C449.088 16.1463 448.973 16.7891 448.973 17.5455C448.973 18.3232 449.088 18.9766 449.319 19.5057C449.553 20.0348 449.88 20.4343 450.299 20.7042C450.718 20.9741 451.203 21.109 451.753 21.109C452.062 21.109 452.348 21.0682 452.611 20.9865C452.877 20.9048 453.113 20.7859 453.319 20.6296C453.525 20.4698 453.696 20.2763 453.831 20.049C453.969 19.8217 454.065 19.5625 454.118 19.2713L456.452 19.282C456.391 19.7827 456.24 20.2656 455.999 20.7308C455.761 21.1925 455.439 21.6062 455.035 21.9719C454.633 22.3342 454.154 22.6218 453.596 22.8349C453.042 23.0444 452.416 23.1491 451.716 23.1491C450.743 23.1491 449.873 22.929 449.106 22.4886C448.343 22.0483 447.739 21.4109 447.295 20.5763C446.855 19.7418 446.634 18.7315 446.634 17.5455C446.634 16.3558 446.858 15.3438 447.306 14.5092C447.753 13.6747 448.36 13.0391 449.127 12.6023C449.894 12.1619 450.757 11.9418 451.716 11.9418C452.348 11.9418 452.934 12.0305 453.474 12.2081C454.017 12.3857 454.498 12.6449 454.917 12.9858C455.336 13.3232 455.677 13.7369 455.94 14.2269C456.207 14.717 456.377 15.2781 456.452 15.9102ZM457.465 13.9925V12.0909H466.425V13.9925H463.085V23H460.805V13.9925H457.465Z" fill="#839C86"/>
<path d="M526 37L399 37L272 37" stroke="#839C86" stroke-width="4" stroke-linecap="round"/>
<path d="M864.4 22V11.0909H866.706V20.0984H871.383V22H864.4ZM882.286 16.5455C882.286 17.7351 882.06 18.7472 881.609 19.5817C881.162 20.4162 880.551 21.0536 879.777 21.494C879.006 21.9308 878.14 22.1491 877.177 22.1491C876.208 22.1491 875.338 21.929 874.567 21.4886C873.797 21.0483 873.188 20.4109 872.74 19.5763C872.293 18.7418 872.069 17.7315 872.069 16.5455C872.069 15.3558 872.293 14.3438 872.74 13.5092C873.188 12.6747 873.797 12.0391 874.567 11.6023C875.338 11.1619 876.208 10.9418 877.177 10.9418C878.14 10.9418 879.006 11.1619 879.777 11.6023C880.551 12.0391 881.162 12.6747 881.609 13.5092C882.06 14.3438 882.286 15.3558 882.286 16.5455ZM879.947 16.5455C879.947 15.7749 879.832 15.125 879.601 14.5959C879.374 14.0668 879.052 13.6655 878.637 13.392C878.221 13.1186 877.735 12.9819 877.177 12.9819C876.62 12.9819 876.133 13.1186 875.718 13.392C875.302 13.6655 874.979 14.0668 874.748 14.5959C874.521 15.125 874.407 15.7749 874.407 16.5455C874.407 17.3161 874.521 17.9659 874.748 18.495C874.979 19.0241 875.302 19.4254 875.718 19.6989C876.133 19.9723 876.62 20.109 877.177 20.109C877.735 20.109 878.221 19.9723 878.637 19.6989C879.052 19.4254 879.374 19.0241 879.601 18.495C879.832 17.9659 879.947 17.3161 879.947 16.5455ZM892.894 11.0909V22H890.902L886.156 15.1339H886.076V22H883.769V11.0909H885.793L890.502 17.9517H890.598V11.0909H892.894ZM901.808 14.6172C901.734 14.358 901.629 14.1289 901.494 13.93C901.359 13.7276 901.194 13.5572 900.998 13.4187C900.807 13.2766 900.586 13.1683 900.338 13.0938C900.093 13.0192 899.821 12.9819 899.523 12.9819C898.965 12.9819 898.475 13.1204 898.053 13.3974C897.634 13.6744 897.307 14.0774 897.073 14.6065C896.838 15.1321 896.721 15.7749 896.721 16.5348C896.721 17.2947 896.836 17.9411 897.067 18.4737C897.298 19.0064 897.625 19.413 898.047 19.6935C898.47 19.9705 898.969 20.109 899.544 20.109C900.066 20.109 900.512 20.0167 900.881 19.832C901.254 19.6438 901.538 19.3793 901.734 19.0384C901.932 18.6974 902.032 18.2944 902.032 17.8292L902.501 17.8984H899.688V16.1619H904.253V17.5362C904.253 18.495 904.051 19.3189 903.646 20.0078C903.241 20.6932 902.683 21.2223 901.973 21.5952C901.263 21.9645 900.45 22.1491 899.534 22.1491C898.511 22.1491 897.612 21.9237 896.838 21.4727C896.064 21.0181 895.46 20.3736 895.027 19.5391C894.598 18.701 894.383 17.7067 894.383 16.5561C894.383 15.6719 894.511 14.8835 894.766 14.1911C895.025 13.495 895.388 12.9055 895.853 12.4226C896.318 11.9396 896.86 11.5721 897.477 11.32C898.095 11.0678 898.765 10.9418 899.486 10.9418C900.104 10.9418 900.679 11.0323 901.211 11.2134C901.744 11.391 902.216 11.6431 902.628 11.9698C903.044 12.2965 903.383 12.6854 903.646 13.1364C903.909 13.5838 904.077 14.0774 904.152 14.6172H901.808ZM910.816 15.6452V17.4457H905.84V15.6452H910.816ZM911.697 12.9925V11.0909H920.657V12.9925H917.317V22H915.037V12.9925H911.697ZM921.907 22V11.0909H929.258V12.9925H924.214V15.592H928.88V17.4936H924.214V20.0984H929.279V22H921.907ZM930.867 22V11.0909H935.171C935.995 11.0909 936.698 11.2383 937.28 11.533C937.866 11.8242 938.312 12.2379 938.617 12.7741C938.926 13.3068 939.081 13.9336 939.081 14.6545C939.081 15.3789 938.924 16.0021 938.612 16.5241C938.299 17.0426 937.847 17.4403 937.254 17.7173C936.664 17.9943 935.95 18.1328 935.112 18.1328H932.23V16.2791H934.739C935.18 16.2791 935.545 16.2187 935.837 16.098C936.128 15.9773 936.344 15.7962 936.486 15.5547C936.632 15.3132 936.705 15.0131 936.705 14.6545C936.705 14.2923 936.632 13.9869 936.486 13.7383C936.344 13.4897 936.126 13.3015 935.831 13.1737C935.54 13.0423 935.173 12.9766 934.729 12.9766H933.173V22H930.867ZM936.758 17.0355L939.469 22H936.923L934.271 17.0355H936.758ZM940.486 11.0909H943.33L946.334 18.4205H946.462L949.466 11.0909H952.311V22H950.074V14.8995H949.983L947.16 21.9467H945.636L942.813 14.8729H942.723V22H940.486V11.0909ZM959.539 11.0909V22H957.233V11.0909H959.539ZM961.212 11.0909H964.056L967.061 18.4205H967.188L970.193 11.0909H973.037V22H970.8V14.8995H970.709L967.886 21.9467H966.363L963.54 14.8729H963.449V22H961.212V11.0909ZM974.713 22V11.0909H979.016C979.844 11.0909 980.549 11.2489 981.131 11.565C981.714 11.8775 982.157 12.3125 982.463 12.87C982.772 13.424 982.926 14.0632 982.926 14.7876C982.926 15.5121 982.77 16.1513 982.458 16.7053C982.145 17.2592 981.692 17.6907 981.099 17.9996C980.51 18.3086 979.796 18.4631 978.958 18.4631H976.215V16.6147H978.585C979.029 16.6147 979.395 16.5384 979.682 16.3857C979.974 16.2294 980.19 16.0146 980.332 15.7411C980.478 15.4641 980.551 15.1463 980.551 14.7876C980.551 14.4254 980.478 14.1094 980.332 13.8395C980.19 13.5661 979.974 13.3548 979.682 13.2056C979.391 13.0529 979.022 12.9766 978.574 12.9766H977.019V22H974.713ZM984.82 22H982.348L986.114 11.0909H989.087L992.847 22H990.376L987.643 13.5838H987.558L984.82 22ZM984.666 17.712H990.504V19.5124H984.666V17.712ZM1003.05 14.9102H1000.71C1000.67 14.6083 1000.59 14.3402 1000.45 14.1058C1000.32 13.8679 1000.15 13.6655 999.948 13.4986C999.742 13.3317 999.504 13.2038 999.234 13.1151C998.968 13.0263 998.678 12.9819 998.366 12.9819C997.801 12.9819 997.309 13.1222 996.89 13.4027C996.471 13.6797 996.146 14.0845 995.916 14.6172C995.685 15.1463 995.569 15.7891 995.569 16.5455C995.569 17.3232 995.685 17.9766 995.916 18.5057C996.15 19.0348 996.477 19.4343 996.896 19.7042C997.315 19.9741 997.799 20.109 998.35 20.109C998.659 20.109 998.945 20.0682 999.207 19.9865C999.474 19.9048 999.71 19.7859 999.916 19.6296C1000.12 19.4698 1000.29 19.2763 1000.43 19.049C1000.57 18.8217 1000.66 18.5625 1000.71 18.2713L1003.05 18.282C1002.99 18.7827 1002.84 19.2656 1002.6 19.7308C1002.36 20.1925 1002.04 20.6062 1001.63 20.9719C1001.23 21.3342 1000.75 21.6218 1000.19 21.8349C999.639 22.0444 999.012 22.1491 998.313 22.1491C997.34 22.1491 996.47 21.929 995.703 21.4886C994.939 21.0483 994.335 20.4109 993.891 19.5763C993.451 18.7418 993.231 17.7315 993.231 16.5455C993.231 15.3558 993.455 14.3438 993.902 13.5092C994.35 12.6747 994.957 12.0391 995.724 11.6023C996.491 11.1619 997.354 10.9418 998.313 10.9418C998.945 10.9418 999.531 11.0305 1000.07 11.2081C1000.61 11.3857 1001.09 11.6449 1001.51 11.9858C1001.93 12.3232 1002.27 12.7369 1002.54 13.2269C1002.8 13.717 1002.97 14.2781 1003.05 14.9102ZM1004.06 12.9925V11.0909H1013.02V12.9925H1009.68V22H1007.4V12.9925H1004.06Z" fill="#839C86"/>
<path d="M528 29L528 37L528 45" stroke="#839C86" stroke-width="4" stroke-linecap="round"/>
<path d="M542 29L542 37L542 45" stroke="#839C86" stroke-width="4" stroke-linecap="round"/>
<path d="M1338 29L1338 37L1338 45" stroke="#839C86" stroke-width="4" stroke-linecap="round"/>
<path d="M272 29L272 37L272 45" stroke="#839C86" stroke-width="4" stroke-linecap="round"/>
<path d="M256 29L256 37L256 45" stroke="#839C86" stroke-width="4" stroke-linecap="round"/>
<path d="M2 29L2 37L2 45" stroke="#839C86" stroke-width="4" stroke-linecap="round"/>
<path d="M542 37L939 36.5L1336 36" stroke="#839C86" stroke-width="4" stroke-linecap="round"/>
<path d="M2 36L256 37" stroke="#839C86" stroke-width="4" stroke-linecap="round"/>
<defs>
<clipPath id="clip0_882_2255">
<rect width="258" height="37" rx="15" fill="white"/>
</clipPath>
</defs>
</svg>
