<svg width="41" height="40" viewBox="0 0 41 40" fill="none" xmlns="http://www.w3.org/2000/svg">
<path d="M31.7896 14.3287C32.2274 14.3287 32.5822 13.9738 32.5822 13.536C32.5822 13.0983 32.2274 12.7434 31.7896 12.7434C31.3519 12.7434 30.997 13.0983 30.997 13.536C30.997 13.9738 31.3519 14.3287 31.7896 14.3287Z" stroke="white" stroke-width="2" stroke-miterlimit="10"/>
<path d="M10.5207 20.9339L2 20.5376C2 20.5376 3.51922 17.301 6.09525 16.4423C8.67128 15.5837 14.5499 14.0645 14.5499 14.0645" stroke="white" stroke-width="2" stroke-miterlimit="10"/>
<path d="M13.0308 27.2748L16.9279 31.1719C16.9279 31.1719 32.8465 22.5191 35.2904 19.6128C37.7343 16.7065 41.103 13.536 38.3288 2.0429C26.8357 -0.73129 23.7313 2.63737 20.759 5.0813C17.7866 7.52523 9.19984 23.4438 9.19984 23.4438L13.0969 27.3409L13.0308 27.2748Z" stroke="white" stroke-width="2" stroke-miterlimit="10"/>
<path d="M15.6068 29.851L12.3702 31.7005L10.5208 29.785L8.60526 27.9355L10.4547 24.699" stroke="white" stroke-width="2" stroke-miterlimit="10"/>
<path d="M39.0553 12.7436L33.3088 6.99702L27.5623 1.25049" stroke="white" stroke-width="2" stroke-miterlimit="10"/>
<path d="M21.0228 28.86L16.2011 24.1043L11.4453 19.2825" stroke="white" stroke-width="2" stroke-miterlimit="10"/>
<path d="M19.3715 29.7846L19.7679 38.3053C19.7679 38.3053 23.0044 36.7861 23.8631 34.21C24.7218 31.634 26.241 25.7554 26.241 25.7554" stroke="white" stroke-width="2" stroke-miterlimit="10"/>
<path d="M10.7849 33.3516C10.7849 33.3516 10.917 35.5974 9.19968 36.9184C7.48233 38.2395 3.18891 37.1826 3.18891 37.1826C3.18891 37.1826 2.13209 32.9553 3.45313 31.1719C4.77417 29.3885 7.01995 29.5866 7.01995 29.5866" stroke="white" stroke-width="2" stroke-miterlimit="10"/>
<path d="M8.47279 32.0303C8.47279 32.0303 8.73697 33.0871 7.8783 34.21C7.01962 35.3329 5.76464 35.0026 5.56648 34.9366" stroke="white" stroke-width="2" stroke-miterlimit="10"/>
<path d="M31.3272 10.8275C31.129 10.4312 30.8648 10.1009 30.5346 9.77066C28.7512 7.98725 25.9109 7.98725 24.1936 9.77066C22.4762 11.5541 22.4102 14.3943 24.1936 16.1117C25.977 17.829 28.8172 17.8951 30.5346 16.1117" stroke="white" stroke-width="2" stroke-miterlimit="10"/>
<path d="M27.3639 14.5267C28.2394 14.5267 28.9491 13.817 28.9491 12.9415C28.9491 12.0659 28.2394 11.3562 27.3639 11.3562C26.4883 11.3562 25.7786 12.0659 25.7786 12.9415C25.7786 13.817 26.4883 14.5267 27.3639 14.5267Z" stroke="white" stroke-width="2" stroke-miterlimit="10"/>
<path d="M5.83145 33.2857C6.2692 33.2857 6.62404 32.9308 6.62404 32.4931C6.62404 32.0553 6.2692 31.7004 5.83145 31.7004C5.39369 31.7004 5.0388 32.0553 5.0388 32.4931C5.0388 32.9308 5.39369 33.2857 5.83145 33.2857Z" stroke="white" stroke-width="2" stroke-miterlimit="10"/>
</svg>
