<svg width="22" height="23" viewBox="0 0 22 23" fill="none" xmlns="http://www.w3.org/2000/svg">
<path d="M1 21.2413H21M1 21.2413V16.2413L11 6.24128M1 21.2413L6 21.2413L16 11.2413M11 6.24128L14.5858 2.65546L14.5879 2.65334C15.0815 2.15973 15.3288 1.91249 15.6138 1.81989C15.8648 1.73832 16.1353 1.73832 16.3864 1.81989C16.6712 1.91243 16.9181 2.15939 17.411 2.65229L19.5858 4.82704C20.0808 5.32206 20.3284 5.56968 20.4211 5.85509C20.5027 6.10615 20.5027 6.37658 20.4211 6.62763C20.3284 6.91284 20.0812 7.16009 19.5869 7.6544L19.5858 7.65546L16 11.2413M11 6.24128L16 11.2413" stroke="white" stroke-width="2" stroke-linecap="round" stroke-linejoin="round"/>
</svg>
