<svg width="57" height="36" viewBox="0 0 57 36" fill="none" xmlns="http://www.w3.org/2000/svg">
<path d="M3.06444 24.984V21.567L5.96579 21.1801C5.96579 21.1801 11.0591 15.5065 12.0262 14.7973C12.9933 14.0881 12.7999 9.51053 12.3485 9.25264C11.8972 8.99475 16.4748 10.6066 17.5064 12.025C18.538 13.4434 20.4077 6.93162 32.0128 7.18951C43.6179 7.4474 47.8086 14.346 48.8402 15.6355C49.8718 16.9249 50.1296 21.567 49.227 23.8235C48.3244 26.0801 43.0376 34.3326 42.5863 34.7839H38.5245C38.5245 34.7839 39.5561 30.7866 39.6851 30.0774C39.814 29.3682 35.9456 30.7221 33.6246 30.9155C30.9167 31.1089 29.4339 30.7866 28.2089 30.5287C28.2089 30.5287 26.3392 34.7839 26.0169 34.7839H21.8261C21.8261 34.7839 22.8577 30.2708 22.5998 29.4971C22.3419 28.7234 21.8261 27.8853 20.2142 28.1432C18.6024 28.4011 14.4761 28.5945 12.7354 28.659C10.3499 28.659 6.54603 26.7893 5.64341 25.8866C4.74079 24.984 3 24.9195 3 24.9195L3.06444 24.984Z" stroke="white" stroke-width="2" stroke-miterlimit="10"/>
<path d="M56.2547 15.7642C56.2547 15.7642 53.7402 14.2169 52.3218 15.055C51.4837 15.5063 51.4192 16.7958 51.935 17.0537C53.2889 17.7629 55.8679 16.6024 54.385 13.83C52.3219 10.0906 47.5509 14.0234 47.5509 14.0234" stroke="white" stroke-width="2" stroke-miterlimit="10"/>
<path d="M16.2171 20.9222C17.0717 20.9222 17.7645 20.2294 17.7645 19.3749C17.7645 18.5203 17.0717 17.8275 16.2171 17.8275C15.3626 17.8275 14.6698 18.5203 14.6698 19.3749C14.6698 20.2294 15.3626 20.9222 16.2171 20.9222Z" stroke="white" stroke-width="2" stroke-miterlimit="10"/>
<path d="M34.3337 11.5735C36.2679 10.6709 37.5573 8.73674 37.5573 6.54466C37.5573 3.44997 35.0429 1 32.0126 1C28.9824 1 26.468 3.51444 26.468 6.54466C26.468 8.80121 27.8219 10.7354 29.6916 11.5735" fill="white"/>
<path d="M34.3337 11.5735C36.2679 10.6709 37.5573 8.73674 37.5573 6.54466C37.5573 3.44997 35.0429 1 32.0126 1C28.9824 1 26.468 3.51444 26.468 6.54466C26.468 8.80121 27.8219 10.7354 29.6916 11.5735" stroke="white" stroke-width="2" stroke-miterlimit="10"/>
<path d="M26.468 12.9274C26.468 12.9274 27.6285 11.38 32.0126 11.38C36.3968 11.38 37.5573 12.9274 37.5573 12.9274" stroke="white" stroke-width="2" stroke-miterlimit="10"/>
<path d="M33.8823 5.4489C34.3096 5.4489 34.6559 5.10251 34.6559 4.67522C34.6559 4.24794 34.3096 3.90155 33.8823 3.90155C33.455 3.90155 33.1085 4.24794 33.1085 4.67522C33.1085 5.10251 33.455 5.4489 33.8823 5.4489Z" stroke="white" stroke-width="2" stroke-miterlimit="10"/>
</svg>
