<svg width="30" height="37" viewBox="0 0 30 37" fill="none" xmlns="http://www.w3.org/2000/svg">
<path d="M18.5061 35.346C17.2257 35.346 16.0011 35.0677 14.9434 34.5111C13.8858 35.0677 12.6611 35.346 11.3808 35.346C7.98512 35.346 5.92541 33.0637 5.14608 32.2287C3.08642 29.9464 1.97317 27.7754 1.30517 24.7138C0.748506 22.0974 0.804142 18.0338 2.75247 15.1391C3.86579 13.4692 5.53579 12.4115 7.53978 12.0775C10.8798 11.5208 13.3291 12.1888 14.9434 13.1908C16.5577 12.1888 19.0071 11.5208 22.3471 12.0775C24.3511 12.4115 26.021 13.4692 27.1344 15.1391C29.0827 17.9781 29.1383 22.0974 28.5817 24.7138C27.9137 27.7754 26.8004 29.9464 24.7964 32.2287C24.0171 33.1194 21.9017 35.4017 18.5617 35.4017L18.5061 35.346Z" stroke="white" stroke-width="1.91121" stroke-miterlimit="10"/>
<path d="M4.86783 16.6419C3.36484 18.8686 3.42046 22.2642 3.86579 24.2125C4.42246 26.7175 5.25749 28.4989 7.03882 30.5028C7.70682 31.2265 9.09847 32.8408 11.3808 32.8408C12.4385 32.8408 13.8301 32.5068 14.9434 31.4492C16.0568 32.5068 17.4484 32.8408 18.5061 32.8408C20.7884 32.8408 22.2357 31.2265 22.8481 30.5028C24.685 28.4989 25.52 26.6619 26.021 24.2125C26.6333 21.4292 26.4664 15.4172 21.9017 14.6936C16.5021 13.8029 14.9434 16.7532 14.9434 16.7532" stroke="white" stroke-width="1.91121" stroke-miterlimit="10"/>
<path d="M6.48236 15.139C5.81436 15.5287 5.25774 16.0297 4.86807 16.642" stroke="white" stroke-width="1.91121" stroke-miterlimit="10"/>
<path d="M14.9436 16.6977C14.9436 16.6977 13.8303 14.6937 10.4346 14.471" stroke="white" stroke-width="1.91121" stroke-miterlimit="10"/>
<path d="M12.2161 25.9943C12.462 25.9943 12.6614 25.3214 12.6614 24.4913C12.6614 23.6613 12.462 22.9883 12.2161 22.9883C11.9701 22.9883 11.7708 23.6613 11.7708 24.4913C11.7708 25.3214 11.9701 25.9943 12.2161 25.9943Z" stroke="white" stroke-width="1.91121" stroke-miterlimit="10"/>
<path d="M17.6711 25.9943C17.917 25.9943 18.1164 25.3214 18.1164 24.4913C18.1164 23.6613 17.917 22.9883 17.6711 22.9883C17.4251 22.9883 17.2258 23.6613 17.2258 24.4913C17.2258 25.3214 17.4251 25.9943 17.6711 25.9943Z" stroke="white" stroke-width="1.91121" stroke-miterlimit="10"/>
<path d="M15.2219 12.7455C14.9992 8.6819 19.0628 4.67392 19.0628 4.67392" stroke="white" stroke-width="1.91121" stroke-miterlimit="10"/>
<path d="M7.9852 1.05567C7.9852 1.05567 13.4405 1.05567 14.2755 2.83699C15.1105 4.61832 16.3352 7.17897 16.4465 7.90263C16.5578 8.6263 12.3828 7.90263 10.5458 7.17897C8.70881 6.45531 7.92953 2.83699 7.9852 1V1.05567Z" stroke="white" stroke-width="1.91121" stroke-miterlimit="10"/>
<path d="M11.0468 3.95038C11.0468 3.95038 13.4961 5.23071 16.2237 8.51502" stroke="white" stroke-width="1.91121" stroke-miterlimit="10"/>
<path d="M8.43048 15.1949C8.83015 15.1949 9.15408 14.8709 9.15408 14.4713C9.15408 14.0716 8.83015 13.7476 8.43048 13.7476C8.03081 13.7476 7.70679 14.0716 7.70679 14.4713C7.70679 14.8709 8.03081 15.1949 8.43048 15.1949Z" stroke="white" stroke-width="1.91121" stroke-miterlimit="10"/>
</svg>
