<svg width="18" height="18" viewBox="0 0 18 18" fill="none" xmlns="http://www.w3.org/2000/svg">
<path d="M16.6308 2.56318C16.6308 2.01605 16.6304 1.74228 16.524 1.5333C16.4303 1.34948 16.2814 1.20014 16.0976 1.10648C15.8886 1 15.6145 1 15.0673 1H2.5627C2.01557 1 1.74228 1 1.5333 1.10648C1.34948 1.20014 1.20014 1.34948 1.10648 1.5333C1 1.74228 1 2.01605 1 2.56318V3.28342C1 3.52237 1 3.64193 1.02699 3.75436C1.05092 3.85405 1.09049 3.94926 1.14406 4.03667C1.20445 4.13523 1.28908 4.21985 1.45793 4.38871L6.40385 9.33463C6.5728 9.50358 6.65682 9.5876 6.71724 9.68618C6.7708 9.77359 6.81091 9.86914 6.83484 9.96882C6.86155 10.0801 6.86155 10.1983 6.86155 10.4324V15.0785C6.86155 15.9159 6.86155 16.3349 7.03793 16.5871C7.19194 16.8073 7.42954 16.9541 7.69537 16.9934C7.9998 17.0384 8.37453 16.8513 9.12355 16.4768L9.90509 16.086C10.2187 15.9292 10.3752 15.8505 10.4898 15.7335C10.5911 15.6301 10.6686 15.5058 10.7158 15.369C10.7692 15.2142 10.7693 15.0384 10.7693 14.6877V10.4396C10.7693 10.2007 10.7693 10.0813 10.7962 9.96882C10.8202 9.86914 10.8597 9.77359 10.9133 9.68618C10.9733 9.58825 11.0571 9.50446 11.2238 9.33775L11.2272 9.33463L16.1731 4.38871C16.3421 4.21975 16.4261 4.13526 16.4865 4.03667C16.5401 3.94926 16.5802 3.85405 16.6041 3.75436C16.6308 3.64308 16.6308 3.5248 16.6308 3.29069V2.56318Z" stroke="#585858" stroke-width="2" stroke-linecap="round" stroke-linejoin="round"/>
</svg>
