<svg width="52" height="38" viewBox="0 0 52 38" fill="none" xmlns="http://www.w3.org/2000/svg">
<path d="M25.5712 22.9717L1 11.8311L25.5712 1L50.2042 11.8311L25.5712 22.9717Z" stroke="white" stroke-width="2" stroke-linecap="round" stroke-linejoin="round"/>
<path d="M40.3022 16.2886V24.4583C35.9698 28.11 29.4711 29.7192 25.5719 29.7192C21.6727 29.7192 15.174 28.0481 10.8416 24.4583V16.2886" stroke="white" stroke-width="2" stroke-linecap="round" stroke-linejoin="round"/>
<path d="M33.0596 8.92065L44.9429 13.9958V19.0091" stroke="white" stroke-width="2" stroke-linecap="round" stroke-linejoin="round"/>
<path d="M44.9422 21.2991V22.1037" stroke="white" stroke-width="2" stroke-linecap="round" stroke-linejoin="round"/>
<path d="M44.9422 24.3333V25.1997" stroke="white" stroke-width="2" stroke-linecap="round" stroke-linejoin="round"/>
<path d="M45.0041 26.0044C45.0041 26.0044 46.5514 25.8187 46.5514 28.4182H45.0041H44.7565H43.2092C43.2092 25.8187 44.7565 26.0044 44.7565 26.0044" stroke="white" stroke-width="2" stroke-linecap="round" stroke-linejoin="round"/>
<path d="M46.7373 28.4783C46.7373 28.4783 48.037 28.4783 48.037 30.8921C48.037 33.8629 45.0662 36.5862 45.0662 36.5862H44.8805C44.8805 36.5862 41.9097 33.8629 41.9097 30.8302C41.9097 28.3545 43.2095 28.4164 43.2095 28.4164" stroke="white" stroke-width="2" stroke-linecap="round" stroke-linejoin="round"/>
</svg>
