<svg width="25" height="25" viewBox="0 0 25 25" fill="none" xmlns="http://www.w3.org/2000/svg">
<path d="M7.90165 17.3483C7.22303 16.6697 6.28553 16.25 5.25 16.25C3.17893 16.25 1.5 17.9289 1.5 20C1.5 22.0711 3.17893 23.75 5.25 23.75C7.32107 23.75 9 22.0711 9 20C9 18.9645 8.58027 18.027 7.90165 17.3483ZM7.90165 17.3483L17.5983 7.65165M17.5983 7.65165C18.277 8.33027 19.2145 8.75 20.25 8.75C22.3211 8.75 24 7.07107 24 5C24 2.92893 22.3211 1.25 20.25 1.25C18.1789 1.25 16.5 2.92893 16.5 5C16.5 6.03553 16.9197 6.97303 17.5983 7.65165ZM17.5983 7.65165L17.6035 7.64648" stroke="white" stroke-width="2" stroke-linecap="round" stroke-linejoin="round"/>
</svg>
