<svg width="532" height="37" viewBox="0 0 532 37" fill="none" xmlns="http://www.w3.org/2000/svg">
<path d="M191.4 14V3.09091H193.706V12.0984H198.383V14H191.4ZM209.286 8.54545C209.286 9.73509 209.06 10.7472 208.609 11.5817C208.162 12.4162 207.551 13.0536 206.777 13.494C206.006 13.9308 205.14 14.1491 204.177 14.1491C203.208 14.1491 202.338 13.929 201.567 13.4886C200.797 13.0483 200.188 12.4109 199.74 11.5763C199.293 10.7418 199.069 9.73153 199.069 8.54545C199.069 7.35582 199.293 6.34375 199.74 5.50923C200.188 4.67472 200.797 4.03906 201.567 3.60227C202.338 3.16193 203.208 2.94176 204.177 2.94176C205.14 2.94176 206.006 3.16193 206.777 3.60227C207.551 4.03906 208.162 4.67472 208.609 5.50923C209.06 6.34375 209.286 7.35582 209.286 8.54545ZM206.947 8.54545C206.947 7.77486 206.832 7.125 206.601 6.59588C206.374 6.06676 206.052 5.66548 205.637 5.39205C205.221 5.11861 204.735 4.98189 204.177 4.98189C203.62 4.98189 203.133 5.11861 202.718 5.39205C202.302 5.66548 201.979 6.06676 201.748 6.59588C201.521 7.125 201.407 7.77486 201.407 8.54545C201.407 9.31605 201.521 9.96591 201.748 10.495C201.979 11.0241 202.302 11.4254 202.718 11.6989C203.133 11.9723 203.62 12.109 204.177 12.109C204.735 12.109 205.221 11.9723 205.637 11.6989C206.052 11.4254 206.374 11.0241 206.601 10.495C206.832 9.96591 206.947 9.31605 206.947 8.54545ZM219.894 3.09091V14H217.902L213.156 7.13388H213.076V14H210.769V3.09091H212.793L217.502 9.9517H217.598V3.09091H219.894ZM228.808 6.61719C228.734 6.35795 228.629 6.12891 228.494 5.93004C228.359 5.72763 228.194 5.55717 227.998 5.41868C227.807 5.27663 227.586 5.16832 227.338 5.09375C227.093 5.01918 226.821 4.98189 226.523 4.98189C225.965 4.98189 225.475 5.12038 225.053 5.39737C224.634 5.67436 224.307 6.07741 224.073 6.60653C223.838 7.1321 223.721 7.77486 223.721 8.5348C223.721 9.29474 223.836 9.94105 224.067 10.4737C224.298 11.0064 224.625 11.413 225.047 11.6935C225.47 11.9705 225.969 12.109 226.544 12.109C227.066 12.109 227.512 12.0167 227.881 11.832C228.254 11.6438 228.538 11.3793 228.734 11.0384C228.932 10.6974 229.032 10.2944 229.032 9.82919L229.501 9.89844H226.688V8.16193H231.253V9.53622C231.253 10.495 231.051 11.3189 230.646 12.0078C230.241 12.6932 229.683 13.2223 228.973 13.5952C228.263 13.9645 227.45 14.1491 226.534 14.1491C225.511 14.1491 224.612 13.9237 223.838 13.4727C223.064 13.0181 222.46 12.3736 222.027 11.5391C221.598 10.701 221.383 9.70668 221.383 8.55611C221.383 7.67187 221.511 6.88352 221.766 6.19105C222.025 5.49503 222.388 4.90554 222.853 4.42259C223.318 3.93963 223.86 3.57209 224.477 3.31996C225.095 3.06783 225.765 2.94176 226.486 2.94176C227.104 2.94176 227.679 3.03232 228.211 3.21342C228.744 3.39098 229.216 3.64311 229.628 3.96982C230.044 4.29652 230.383 4.68537 230.646 5.13636C230.909 5.58381 231.077 6.07741 231.152 6.61719H228.808ZM237.816 7.64524V9.44567H232.84V7.64524H237.816ZM238.697 4.99254V3.09091H247.657V4.99254H244.317V14H242.037V4.99254H238.697ZM248.907 14V3.09091H256.258V4.99254H251.214V7.59197H255.88V9.49361H251.214V12.0984H256.279V14H248.907ZM257.867 14V3.09091H262.171C262.995 3.09091 263.698 3.23828 264.28 3.53303C264.866 3.82422 265.312 4.23793 265.617 4.77415C265.926 5.30682 266.081 5.93359 266.081 6.65447C266.081 7.37891 265.924 8.00213 265.612 8.52415C265.299 9.04261 264.847 9.44034 264.254 9.71733C263.664 9.99432 262.95 10.1328 262.112 10.1328H259.23V8.27912H261.739C262.18 8.27912 262.545 8.21875 262.837 8.09801C263.128 7.97727 263.344 7.79616 263.486 7.55469C263.632 7.31321 263.705 7.01314 263.705 6.65447C263.705 6.29226 263.632 5.98686 263.486 5.73828C263.344 5.4897 263.126 5.30149 262.831 5.17365C262.54 5.04226 262.173 4.97656 261.729 4.97656H260.173V14H257.867ZM263.758 9.03551L266.469 14H263.923L261.271 9.03551H263.758ZM267.486 3.09091H270.33L273.334 10.4205H273.462L276.466 3.09091H279.311V14H277.074V6.8995H276.983L274.16 13.9467H272.636L269.813 6.87287H269.723V14H267.486V3.09091ZM286.539 3.09091V14H284.233V3.09091H286.539ZM288.212 3.09091H291.056L294.061 10.4205H294.188L297.193 3.09091H300.037V14H297.8V6.8995H297.709L294.886 13.9467H293.363L290.54 6.87287H290.449V14H288.212V3.09091ZM301.713 14V3.09091H306.016C306.844 3.09091 307.549 3.24893 308.131 3.56499C308.714 3.87749 309.157 4.3125 309.463 4.87003C309.772 5.42401 309.926 6.06321 309.926 6.78764C309.926 7.51207 309.77 8.15128 309.458 8.70526C309.145 9.25923 308.692 9.6907 308.099 9.99964C307.51 10.3086 306.796 10.4631 305.958 10.4631H303.215V8.6147H305.585C306.029 8.6147 306.395 8.53835 306.682 8.38565C306.974 8.2294 307.19 8.01456 307.332 7.74112C307.478 7.46413 307.551 7.14631 307.551 6.78764C307.551 6.42543 307.478 6.10937 307.332 5.83949C307.19 5.56605 306.974 5.35476 306.682 5.20561C306.391 5.05291 306.022 4.97656 305.574 4.97656H304.019V14H301.713ZM311.82 14H309.348L313.114 3.09091H316.087L319.847 14H317.376L314.643 5.58381H314.558L311.82 14ZM311.666 9.712H317.504V11.5124H311.666V9.712ZM330.048 6.91016H327.715C327.672 6.60831 327.585 6.3402 327.454 6.10582C327.323 5.8679 327.154 5.66548 326.948 5.49858C326.742 5.33168 326.504 5.20383 326.234 5.11506C325.968 5.02628 325.678 4.98189 325.366 4.98189C324.801 4.98189 324.309 5.12216 323.89 5.4027C323.471 5.67969 323.146 6.08452 322.916 6.61719C322.685 7.14631 322.569 7.78906 322.569 8.54545C322.569 9.32315 322.685 9.97656 322.916 10.5057C323.15 11.0348 323.477 11.4343 323.896 11.7042C324.315 11.9741 324.799 12.109 325.35 12.109C325.659 12.109 325.945 12.0682 326.207 11.9865C326.474 11.9048 326.71 11.7859 326.916 11.6296C327.122 11.4698 327.292 11.2763 327.427 11.049C327.566 10.8217 327.662 10.5625 327.715 10.2713L330.048 10.282C329.988 10.7827 329.837 11.2656 329.595 11.7308C329.357 12.1925 329.036 12.6062 328.631 12.9719C328.23 13.3342 327.75 13.6218 327.193 13.8349C326.639 14.0444 326.012 14.1491 325.313 14.1491C324.34 14.1491 323.47 13.929 322.703 13.4886C321.939 13.0483 321.335 12.4109 320.891 11.5763C320.451 10.7418 320.231 9.73153 320.231 8.54545C320.231 7.35582 320.455 6.34375 320.902 5.50923C321.35 4.67472 321.957 4.03906 322.724 3.60227C323.491 3.16193 324.354 2.94176 325.313 2.94176C325.945 2.94176 326.531 3.03054 327.07 3.2081C327.614 3.38565 328.095 3.64489 328.514 3.98579C328.933 4.32315 329.274 4.73686 329.537 5.22692C329.803 5.71697 329.973 6.27805 330.048 6.91016ZM331.061 4.99254V3.09091H340.021V4.99254H336.681V14H334.401V4.99254H331.061Z" fill="#839C86"/>
<path d="M530 18L530 26L530 34" stroke="#839C86" stroke-width="4" stroke-linecap="round"/>
<path d="M2 19L2 27L2 35" stroke="#839C86" stroke-width="4" stroke-linecap="round"/>
<path d="M2 26H530" stroke="#839C86" stroke-width="4" stroke-linecap="round"/>
</svg>
