<svg width="532" height="37" viewBox="0 0 532 37" fill="none" xmlns="http://www.w3.org/2000/svg">
<path d="M197.996 3.09091H200.841L203.845 10.4205H203.973L206.977 3.09091H209.822V14H207.584V6.8995H207.494L204.671 13.9467H203.147L200.324 6.87287H200.234V14H197.996V3.09091ZM213.803 3.09091V14H211.497V3.09091H213.803ZM219.343 14H215.476V3.09091H219.375C220.472 3.09091 221.417 3.3093 222.209 3.74609C223.001 4.17933 223.61 4.80256 224.036 5.61577C224.466 6.42898 224.681 7.40199 224.681 8.5348C224.681 9.67116 224.466 10.6477 224.036 11.4645C223.61 12.2812 222.997 12.908 222.198 13.3448C221.403 13.7816 220.451 14 219.343 14ZM217.782 12.0238H219.247C219.929 12.0238 220.503 11.9031 220.968 11.6616C221.437 11.4165 221.788 11.0384 222.023 10.527C222.26 10.0121 222.379 9.34801 222.379 8.5348C222.379 7.72869 222.26 7.06996 222.023 6.55859C221.788 6.04723 221.438 5.67081 220.973 5.42933C220.508 5.18786 219.934 5.06712 219.253 5.06712H217.782V12.0238ZM231.219 7.64524V9.44567H226.244V7.64524H231.219ZM232.101 4.99254V3.09091H241.06V4.99254H237.72V14H235.441V4.99254H232.101ZM242.311 14V3.09091H249.662V4.99254H244.617V7.59197H249.283V9.49361H244.617V12.0984H249.683V14H242.311ZM251.27 14V3.09091H255.574C256.398 3.09091 257.101 3.23828 257.684 3.53303C258.27 3.82422 258.715 4.23793 259.021 4.77415C259.33 5.30682 259.484 5.93359 259.484 6.65447C259.484 7.37891 259.328 8.00213 259.015 8.52415C258.703 9.04261 258.25 9.44034 257.657 9.71733C257.068 9.99432 256.354 10.1328 255.516 10.1328H252.634V8.27912H255.143C255.583 8.27912 255.949 8.21875 256.24 8.09801C256.531 7.97727 256.748 7.79616 256.89 7.55469C257.036 7.31321 257.108 7.01314 257.108 6.65447C257.108 6.29226 257.036 5.98686 256.89 5.73828C256.748 5.4897 256.53 5.30149 256.235 5.17365C255.944 5.04226 255.576 4.97656 255.132 4.97656H253.577V14H251.27ZM257.162 9.03551L259.873 14H257.327L254.674 9.03551H257.162ZM260.889 3.09091H263.734L266.738 10.4205H266.866L269.87 3.09091H272.714V14H270.477V6.8995H270.387L267.563 13.9467H266.04L263.217 6.87287H263.126V14H260.889V3.09091ZM279.943 3.09091V14H277.636V3.09091H279.943ZM281.615 3.09091H284.46L287.464 10.4205H287.592L290.596 3.09091H293.441V14H291.204V6.8995H291.113L288.29 13.9467H286.766L283.943 6.87287H283.853V14H281.615V3.09091ZM295.116 14V3.09091H299.42C300.247 3.09091 300.952 3.24893 301.535 3.56499C302.117 3.87749 302.561 4.3125 302.866 4.87003C303.175 5.42401 303.33 6.06321 303.33 6.78764C303.33 7.51207 303.174 8.15128 302.861 8.70526C302.549 9.25923 302.096 9.6907 301.503 9.99964C300.913 10.3086 300.199 10.4631 299.361 10.4631H296.618V8.6147H298.989C299.432 8.6147 299.798 8.53835 300.086 8.38565C300.377 8.2294 300.594 8.01456 300.736 7.74112C300.881 7.46413 300.954 7.14631 300.954 6.78764C300.954 6.42543 300.881 6.10937 300.736 5.83949C300.594 5.56605 300.377 5.35476 300.086 5.20561C299.795 5.05291 299.425 4.97656 298.978 4.97656H297.422V14H295.116ZM305.223 14H302.752L306.518 3.09091H309.49L313.251 14H310.779L308.047 5.58381H307.961L305.223 14ZM305.069 9.712H310.907V11.5124H305.069V9.712ZM323.452 6.91016H321.118C321.076 6.60831 320.989 6.3402 320.857 6.10582C320.726 5.8679 320.557 5.66548 320.351 5.49858C320.145 5.33168 319.907 5.20383 319.638 5.11506C319.371 5.02628 319.082 4.98189 318.769 4.98189C318.205 4.98189 317.713 5.12216 317.294 5.4027C316.875 5.67969 316.55 6.08452 316.319 6.61719C316.088 7.14631 315.973 7.78906 315.973 8.54545C315.973 9.32315 316.088 9.97656 316.319 10.5057C316.553 11.0348 316.88 11.4343 317.299 11.7042C317.718 11.9741 318.203 12.109 318.753 12.109C319.062 12.109 319.348 12.0682 319.611 11.9865C319.877 11.9048 320.113 11.7859 320.319 11.6296C320.525 11.4698 320.696 11.2763 320.831 11.049C320.969 10.8217 321.065 10.5625 321.118 10.2713L323.452 10.282C323.391 10.7827 323.24 11.2656 322.999 11.7308C322.761 12.1925 322.439 12.6062 322.035 12.9719C321.633 13.3342 321.154 13.6218 320.596 13.8349C320.042 14.0444 319.416 14.1491 318.716 14.1491C317.743 14.1491 316.873 13.929 316.106 13.4886C315.343 13.0483 314.739 12.4109 314.295 11.5763C313.855 10.7418 313.634 9.73153 313.634 8.54545C313.634 7.35582 313.858 6.34375 314.306 5.50923C314.753 4.67472 315.36 4.03906 316.127 3.60227C316.894 3.16193 317.757 2.94176 318.716 2.94176C319.348 2.94176 319.934 3.03054 320.474 3.2081C321.017 3.38565 321.498 3.64489 321.917 3.98579C322.336 4.32315 322.677 4.73686 322.94 5.22692C323.207 5.71697 323.377 6.27805 323.452 6.91016ZM324.465 4.99254V3.09091H333.425V4.99254H330.085V14H327.805V4.99254H324.465Z" fill="#839C86"/>
<path d="M530 18L530 26L530 34" stroke="#839C86" stroke-width="4" stroke-linecap="round"/>
<path d="M2 19L2 27L2 35" stroke="#839C86" stroke-width="4" stroke-linecap="round"/>
<path d="M2 26H530" stroke="#839C86" stroke-width="4" stroke-linecap="round"/>
</svg>
