<svg width="27" height="27" viewBox="0 0 27 27" fill="none" xmlns="http://www.w3.org/2000/svg">
<path d="M13.5 18.1875L18.1875 13.5M18.1875 13.5L13.5 8.8125M18.1875 13.5H1M1 6.07503V6.00031C1 4.25014 1 3.37441 1.3406 2.70593C1.64021 2.11793 2.11793 1.64021 2.70593 1.3406C3.37441 1 4.25014 1 6.00031 1H21.0003C22.7505 1 23.6243 1 24.2928 1.3406C24.8808 1.64021 25.3601 2.11793 25.6597 2.70593C26 3.37375 26 4.24843 26 5.99517V21.0056C26 22.7523 26 23.6257 25.6597 24.2936C25.3601 24.8816 24.8808 25.3601 24.2928 25.6597C23.625 26 22.7516 26 21.0048 26H5.99517C4.24843 26 3.37375 26 2.70593 25.6597C2.11793 25.3601 1.64021 24.8811 1.3406 24.2931C1 23.6246 1 22.7502 1 21V20.9219" stroke="#585858" stroke-width="2" stroke-linecap="round" stroke-linejoin="round"/>
</svg>
