<svg width="532" height="37" viewBox="0 0 532 37" fill="none" xmlns="http://www.w3.org/2000/svg">
<path d="M192.979 6.22834C192.937 5.79865 192.754 5.46484 192.43 5.22692C192.107 4.98899 191.669 4.87003 191.115 4.87003C190.738 4.87003 190.421 4.9233 190.161 5.02983C189.902 5.13281 189.703 5.27663 189.565 5.46129C189.43 5.64595 189.362 5.85547 189.362 6.08984C189.355 6.28516 189.396 6.45561 189.485 6.60121C189.577 6.7468 189.703 6.87287 189.863 6.9794C190.023 7.08239 190.207 7.17294 190.417 7.25107C190.626 7.32564 190.85 7.38956 191.088 7.44283L192.068 7.6772C192.544 7.78374 192.981 7.92578 193.379 8.10334C193.776 8.28089 194.121 8.49929 194.412 8.75852C194.703 9.01776 194.929 9.32315 195.088 9.67472C195.252 10.0263 195.335 10.4293 195.339 10.8839C195.335 11.5515 195.165 12.1303 194.827 12.6204C194.494 13.1069 194.011 13.4851 193.379 13.755C192.75 14.0213 191.992 14.1545 191.104 14.1545C190.223 14.1545 189.456 14.0195 188.803 13.7496C188.153 13.4798 187.645 13.0803 187.28 12.5511C186.917 12.0185 186.727 11.3597 186.71 10.5749H188.941C188.966 10.9407 189.071 11.2461 189.256 11.4911C189.444 11.7326 189.694 11.9155 190.007 12.0398C190.323 12.1605 190.68 12.2209 191.077 12.2209C191.468 12.2209 191.807 12.1641 192.095 12.0504C192.386 11.9368 192.612 11.7788 192.771 11.5763C192.931 11.3739 193.011 11.1413 193.011 10.8786C193.011 10.6335 192.938 10.4276 192.793 10.2607C192.651 10.0937 192.441 9.9517 192.164 9.83452C191.891 9.71733 191.555 9.6108 191.157 9.51491L189.97 9.21662C189.05 8.9929 188.324 8.64311 187.791 8.16726C187.258 7.69141 186.994 7.05043 186.997 6.24432C186.994 5.58381 187.169 5.00675 187.525 4.51314C187.883 4.01953 188.375 3.63423 189 3.35724C189.625 3.08026 190.335 2.94176 191.131 2.94176C191.94 2.94176 192.647 3.08026 193.251 3.35724C193.858 3.63423 194.33 4.01953 194.668 4.51314C195.005 5.00675 195.179 5.57848 195.19 6.22834H192.979ZM196.665 14V3.09091H198.972V7.59197H203.654V3.09091H205.955V14H203.654V9.49361H198.972V14H196.665ZM217.657 8.54545C217.657 9.73509 217.431 10.7472 216.98 11.5817C216.533 12.4162 215.922 13.0536 215.148 13.494C214.377 13.9308 213.511 14.1491 212.548 14.1491C211.579 14.1491 210.709 13.929 209.938 13.4886C209.168 13.0483 208.558 12.4109 208.111 11.5763C207.664 10.7418 207.44 9.73153 207.44 8.54545C207.44 7.35582 207.664 6.34375 208.111 5.50923C208.558 4.67472 209.168 4.03906 209.938 3.60227C210.709 3.16193 211.579 2.94176 212.548 2.94176C213.511 2.94176 214.377 3.16193 215.148 3.60227C215.922 4.03906 216.533 4.67472 216.98 5.50923C217.431 6.34375 217.657 7.35582 217.657 8.54545ZM215.318 8.54545C215.318 7.77486 215.203 7.125 214.972 6.59588C214.745 6.06676 214.423 5.66548 214.008 5.39205C213.592 5.11861 213.106 4.98189 212.548 4.98189C211.991 4.98189 211.504 5.11861 211.089 5.39205C210.673 5.66548 210.35 6.06676 210.119 6.59588C209.892 7.125 209.778 7.77486 209.778 8.54545C209.778 9.31605 209.892 9.96591 210.119 10.495C210.35 11.0241 210.673 11.4254 211.089 11.6989C211.504 11.9723 211.991 12.109 212.548 12.109C213.106 12.109 213.592 11.9723 214.008 11.6989C214.423 11.4254 214.745 11.0241 214.972 10.495C215.203 9.96591 215.318 9.31605 215.318 8.54545ZM219.14 14V3.09091H223.444C224.268 3.09091 224.971 3.23828 225.553 3.53303C226.139 3.82422 226.585 4.23793 226.89 4.77415C227.199 5.30682 227.354 5.93359 227.354 6.65447C227.354 7.37891 227.198 8.00213 226.885 8.52415C226.573 9.04261 226.12 9.44034 225.527 9.71733C224.937 9.99432 224.224 10.1328 223.385 10.1328H220.504V8.27912H223.013C223.453 8.27912 223.819 8.21875 224.11 8.09801C224.401 7.97727 224.618 7.79616 224.76 7.55469C224.905 7.31321 224.978 7.01314 224.978 6.65447C224.978 6.29226 224.905 5.98686 224.76 5.73828C224.618 5.4897 224.399 5.30149 224.105 5.17365C223.813 5.04226 223.446 4.97656 223.002 4.97656H221.447V14H219.14ZM225.031 9.03551L227.743 14H225.197L222.544 9.03551H225.031ZM228.343 4.99254V3.09091H237.303V4.99254H233.963V14H231.683V4.99254H228.343ZM243.154 7.64524V9.44567H238.179V7.64524H243.154ZM244.036 4.99254V3.09091H252.995V4.99254H249.656V14H247.376V4.99254H244.036ZM254.246 14V3.09091H261.597V4.99254H256.552V7.59197H261.219V9.49361H256.552V12.0984H261.618V14H254.246ZM263.205 14V3.09091H267.509C268.333 3.09091 269.036 3.23828 269.619 3.53303C270.205 3.82422 270.65 4.23793 270.956 4.77415C271.265 5.30682 271.419 5.93359 271.419 6.65447C271.419 7.37891 271.263 8.00213 270.951 8.52415C270.638 9.04261 270.185 9.44034 269.592 9.71733C269.003 9.99432 268.289 10.1328 267.451 10.1328H264.569V8.27912H267.078C267.518 8.27912 267.884 8.21875 268.175 8.09801C268.466 7.97727 268.683 7.79616 268.825 7.55469C268.971 7.31321 269.044 7.01314 269.044 6.65447C269.044 6.29226 268.971 5.98686 268.825 5.73828C268.683 5.4897 268.465 5.30149 268.17 5.17365C267.879 5.04226 267.511 4.97656 267.067 4.97656H265.512V14H263.205ZM269.097 9.03551L271.808 14H269.262L266.609 9.03551H269.097ZM272.824 3.09091H275.669L278.673 10.4205H278.801L281.805 3.09091H284.65V14H282.412V6.8995H282.322L279.499 13.9467H277.975L275.152 6.87287H275.061V14H272.824V3.09091ZM291.878 3.09091V14H289.571V3.09091H291.878ZM293.551 3.09091H296.395L299.399 10.4205H299.527L302.531 3.09091H305.376V14H303.139V6.8995H303.048L300.225 13.9467H298.702L295.878 6.87287H295.788V14H293.551V3.09091ZM307.051 14V3.09091H311.355C312.183 3.09091 312.887 3.24893 313.47 3.56499C314.052 3.87749 314.496 4.3125 314.802 4.87003C315.11 5.42401 315.265 6.06321 315.265 6.78764C315.265 7.51207 315.109 8.15128 314.796 8.70526C314.484 9.25923 314.031 9.6907 313.438 9.99964C312.848 10.3086 312.135 10.4631 311.297 10.4631H308.553V8.6147H310.924C311.368 8.6147 311.733 8.53835 312.021 8.38565C312.312 8.2294 312.529 8.01456 312.671 7.74112C312.816 7.46413 312.889 7.14631 312.889 6.78764C312.889 6.42543 312.816 6.10937 312.671 5.83949C312.529 5.56605 312.312 5.35476 312.021 5.20561C311.73 5.05291 311.36 4.97656 310.913 4.97656H309.358V14H307.051ZM317.159 14H314.687L318.453 3.09091H321.425L325.186 14H322.714L319.982 5.58381H319.897L317.159 14ZM317.004 9.712H322.842V11.5124H317.004V9.712ZM335.387 6.91016H333.054C333.011 6.60831 332.924 6.3402 332.793 6.10582C332.661 5.8679 332.493 5.66548 332.287 5.49858C332.081 5.33168 331.843 5.20383 331.573 5.11506C331.306 5.02628 331.017 4.98189 330.705 4.98189C330.14 4.98189 329.648 5.12216 329.229 5.4027C328.81 5.67969 328.485 6.08452 328.254 6.61719C328.023 7.14631 327.908 7.78906 327.908 8.54545C327.908 9.32315 328.023 9.97656 328.254 10.5057C328.489 11.0348 328.815 11.4343 329.234 11.7042C329.653 11.9741 330.138 12.109 330.689 12.109C330.997 12.109 331.283 12.0682 331.546 11.9865C331.812 11.9048 332.049 11.7859 332.255 11.6296C332.461 11.4698 332.631 11.2763 332.766 11.049C332.904 10.8217 333 10.5625 333.054 10.2713L335.387 10.282C335.326 10.7827 335.175 11.2656 334.934 11.7308C334.696 12.1925 334.375 12.6062 333.97 12.9719C333.569 13.3342 333.089 13.6218 332.532 13.8349C331.978 14.0444 331.351 14.1491 330.651 14.1491C329.678 14.1491 328.808 13.929 328.041 13.4886C327.278 13.0483 326.674 12.4109 326.23 11.5763C325.79 10.7418 325.57 9.73153 325.57 8.54545C325.57 7.35582 325.793 6.34375 326.241 5.50923C326.688 4.67472 327.295 4.03906 328.062 3.60227C328.83 3.16193 329.692 2.94176 330.651 2.94176C331.283 2.94176 331.869 3.03054 332.409 3.2081C332.952 3.38565 333.434 3.64489 333.853 3.98579C334.272 4.32315 334.613 4.73686 334.875 5.22692C335.142 5.71697 335.312 6.27805 335.387 6.91016ZM336.4 4.99254V3.09091H345.36V4.99254H342.02V14H339.74V4.99254H336.4Z" fill="#839C86"/>
<path d="M530 18L530 26L530 34" stroke="#839C86" stroke-width="4" stroke-linecap="round"/>
<path d="M2 19L2 27L2 35" stroke="#839C86" stroke-width="4" stroke-linecap="round"/>
<path d="M2 26H530" stroke="#839C86" stroke-width="4" stroke-linecap="round"/>
</svg>
