<svg width="37" height="40" viewBox="0 0 37 40" fill="none" xmlns="http://www.w3.org/2000/svg">
<path d="M8.95257 16.905C13.3446 16.905 16.905 13.3445 16.905 8.9525C16.905 4.56046 13.3446 1 8.95257 1C4.56053 1 1 4.56046 1 8.9525C1 13.3445 4.56053 16.905 8.95257 16.905Z" stroke="white" stroke-width="2" stroke-miterlimit="10"/>
<path d="M13.543 7.33615C13.7369 7.85338 13.8016 8.37062 13.8016 8.95251C13.8016 11.6033 11.668 13.8016 8.95254 13.8016C6.23705 13.8016 4.10345 11.668 4.10345 8.95251C4.10345 6.23702 6.23705 4.10342 8.95254 4.10342C9.27581 4.10342 9.59908 4.10342 9.8577 4.16808" stroke="white" stroke-width="2" stroke-miterlimit="10"/>
<path d="M12.1852 6.17238C12.6494 6.17238 13.0256 5.79607 13.0256 5.33187C13.0256 4.86767 12.6494 4.49136 12.1852 4.49136C11.721 4.49136 11.3447 4.86767 11.3447 5.33187C11.3447 5.79607 11.721 6.17238 12.1852 6.17238Z" stroke="white" stroke-width="2" stroke-miterlimit="10"/>
<path d="M7.52997 16.9052V22.9827" stroke="white" stroke-width="2" stroke-miterlimit="10"/>
<path d="M10.4398 16.9052V22.9827" stroke="white" stroke-width="2" stroke-miterlimit="10"/>
<path d="M15.1594 13.9311L20.0731 17.4871" stroke="white" stroke-width="2" stroke-miterlimit="10"/>
<path d="M16.8407 11.6036L21.7545 15.0949" stroke="white" stroke-width="2" stroke-miterlimit="10"/>
<path d="M8.95257 16.905C13.3446 16.905 16.905 13.3445 16.905 8.9525C16.905 4.56046 13.3446 1 8.95257 1C4.56053 1 1 4.56046 1 8.9525C1 13.3445 4.56053 16.905 8.95257 16.905Z" stroke="white" stroke-width="2" stroke-miterlimit="10"/>
<path d="M13.543 7.33615C13.7369 7.85338 13.8016 8.37062 13.8016 8.95251C13.8016 11.6033 11.668 13.8016 8.95254 13.8016C6.23705 13.8016 4.10345 11.668 4.10345 8.95251C4.10345 6.23702 6.23705 4.10342 8.95254 4.10342C9.27581 4.10342 9.59908 4.10342 9.8577 4.16808" stroke="white" stroke-width="2" stroke-miterlimit="10"/>
<path d="M12.1852 6.17238C12.6494 6.17238 13.0256 5.79607 13.0256 5.33187C13.0256 4.86767 12.6494 4.49136 12.1852 4.49136C11.721 4.49136 11.3447 4.86767 11.3447 5.33187C11.3447 5.79607 11.721 6.17238 12.1852 6.17238Z" stroke="white" stroke-width="2" stroke-miterlimit="10"/>
<path d="M8.95263 38.3704C13.3447 38.3704 16.9051 34.8099 16.9051 30.4179C16.9051 26.0258 13.3447 22.4654 8.95263 22.4654C4.56059 22.4654 1.00006 26.0258 1.00006 30.4179C1.00006 34.8099 4.56059 38.3704 8.95263 38.3704Z" stroke="white" stroke-width="2" stroke-miterlimit="10"/>
<path d="M4.42667 32.0342C4.2327 31.517 4.16809 30.9997 4.16809 30.4178C4.16809 27.767 6.30169 25.5688 9.01718 25.5688C11.7327 25.5688 13.8663 27.7024 13.8663 30.4178C13.8663 33.1333 11.7327 35.2669 9.01718 35.2669C8.6939 35.2669 8.37063 35.2669 8.11202 35.2023" stroke="white" stroke-width="2" stroke-miterlimit="10"/>
<path d="M5.78445 34.8789C6.24865 34.8789 6.62499 34.5026 6.62499 34.0384C6.62499 33.5742 6.24865 33.1979 5.78445 33.1979C5.32025 33.1979 4.94391 33.5742 4.94391 34.0384C4.94391 34.5026 5.32025 34.8789 5.78445 34.8789Z" stroke="white" stroke-width="2" stroke-miterlimit="10"/>
<path d="M27.7022 28.4138C32.0943 28.4138 35.6547 24.8534 35.6547 20.4613C35.6547 16.0693 32.0943 12.5088 27.7022 12.5088C23.3102 12.5088 19.7498 16.0693 19.7498 20.4613C19.7498 24.8534 23.3102 28.4138 27.7022 28.4138Z" stroke="white" stroke-width="2" stroke-miterlimit="10"/>
<path d="M32.0985 22.5304C31.8399 23.0476 31.5167 23.5002 31.1287 23.8881C29.2537 25.7631 26.215 25.7631 24.2754 23.8881C22.3357 22.0131 22.4004 18.9744 24.2754 17.0347C26.1503 15.0951 29.1891 15.1598 31.1287 17.0347C31.3227 17.2287 31.5166 17.4873 31.7106 17.7459" stroke="white" stroke-width="2" stroke-miterlimit="10"/>
<path d="M32.5511 20.9786C33.0153 20.9786 33.3917 20.6023 33.3917 20.1381C33.3917 19.6739 33.0153 19.2976 32.5511 19.2976C32.0869 19.2976 31.7106 19.6739 31.7106 20.1381C31.7106 20.6023 32.0869 20.9786 32.5511 20.9786Z" stroke="white" stroke-width="2" stroke-miterlimit="10"/>
<path d="M20.4608 22.9826L15.0298 25.5688" stroke="white" stroke-width="2" stroke-miterlimit="10"/>
<path d="M21.6893 25.5688L16.2584 28.1549" stroke="white" stroke-width="2" stroke-miterlimit="10"/>
</svg>
