<svg width="22" height="23" viewBox="0 0 22 23" fill="none" xmlns="http://www.w3.org/2000/svg">
<path d="M12.25 21.4989C12.1314 21.5 11.9983 21.5 11.8463 21.5H4.99614C3.59874 21.5 2.899 21.5 2.36475 21.2278C1.89434 20.9881 1.51217 20.6053 1.27248 20.1349C1 19.6001 1 18.9004 1 17.5002V5.50024C1 4.10011 1 3.39953 1.27248 2.86475C1.51217 2.39434 1.89434 2.01217 2.36475 1.77248C2.89953 1.5 3.60011 1.5 5.00024 1.5H17.0002C18.4004 1.5 19.0995 1.5 19.6342 1.77248C20.1046 2.01217 20.4881 2.39434 20.7278 2.86475C21 3.399 21 4.09874 21 5.49614V12.3434C21 12.4966 21 12.6307 20.9988 12.75M12.25 21.4989C12.6071 21.4957 12.8329 21.4828 13.0486 21.431C13.3036 21.3698 13.5473 21.2684 13.771 21.1313C14.0233 20.9767 14.2395 20.7611 14.6719 20.3287L19.8287 15.1719C20.2611 14.7395 20.4761 14.5233 20.6307 14.271C20.7678 14.0473 20.8692 13.803 20.9304 13.5479C20.9822 13.3323 20.9954 13.1068 20.9988 12.75M12.25 21.4989V14.7501C12.25 14.0501 12.25 13.6998 12.3862 13.4324C12.5061 13.1972 12.6972 13.0061 12.9324 12.8862C13.1998 12.75 13.5494 12.75 14.2495 12.75H20.9988" stroke="white" stroke-width="2" stroke-linecap="round" stroke-linejoin="round"/>
</svg>
