<svg width="27" height="28" viewBox="0 0 27 28" fill="none" xmlns="http://www.w3.org/2000/svg">
<path d="M1.20497 11.1953C0.806499 10.8088 1.02295 10.1103 1.56191 10.0433L9.19876 9.09336C9.41842 9.06605 9.60922 8.9214 9.70187 8.71076L12.923 1.38766C13.1503 0.870845 13.8509 0.870745 14.0783 1.38757L17.2994 8.71061C17.392 8.92124 17.5816 9.06629 17.8013 9.0936L25.4385 10.0433C25.9775 10.1103 26.1933 10.8091 25.7949 11.1955L20.1494 16.6713C19.987 16.8288 19.9147 17.0632 19.9578 17.2907L21.4561 25.2006C21.5618 25.7589 20.9953 26.1914 20.5217 25.9134L13.8112 21.9734C13.6182 21.8601 13.3837 21.8606 13.1907 21.9739L6.4795 25.9124C6.00591 26.1904 5.43833 25.7589 5.5441 25.2006L7.04264 17.2912C7.08575 17.0637 7.01363 16.8288 6.85123 16.6713L1.20497 11.1953Z" stroke="white" stroke-width="2" stroke-linecap="round" stroke-linejoin="round"/>
</svg>
