<svg width="27" height="27" viewBox="0 0 27 27" fill="none" xmlns="http://www.w3.org/2000/svg">
<path d="M26 21.4104V12.9235C26 12.1061 25.9993 11.6972 25.8978 11.3168C25.8078 10.9798 25.6601 10.6608 25.4603 10.3725C25.2347 10.0473 24.9212 9.77755 24.2928 9.2393L16.7928 2.81443C15.6263 1.81508 15.043 1.31566 14.3865 1.1256C13.8081 0.958133 13.1916 0.958133 12.6132 1.1256C11.9572 1.31551 11.3748 1.81446 10.2099 2.8123L2.70746 9.2393C2.07913 9.77756 1.76569 10.0473 1.54016 10.3725C1.3403 10.6608 1.19148 10.9798 1.10152 11.3168C1 11.6972 1 12.1061 1 12.9235V21.4104C1 22.8359 1 23.5484 1.23788 24.1106C1.55505 24.8603 2.163 25.4566 2.92871 25.7671C3.503 26 4.23103 26 5.6871 26C7.14316 26 7.872 26 8.44629 25.7671C9.212 25.4566 9.81979 24.8604 10.137 24.1107C10.3748 23.5485 10.375 22.8357 10.375 21.4102V19.8805C10.375 18.1908 11.7741 16.821 13.5 16.821C15.2259 16.821 16.625 18.1908 16.625 19.8805V21.4102C16.625 22.8357 16.625 23.5485 16.8629 24.1107C17.18 24.8604 17.788 25.4566 18.5537 25.7671C19.128 26 19.856 26 21.3121 26C22.7682 26 23.497 26 24.0713 25.7671C24.837 25.4566 25.4448 24.8603 25.762 24.1106C25.9998 23.5484 26 22.8359 26 21.4104Z" stroke="white" stroke-width="2" stroke-linecap="round" stroke-linejoin="round"/>
</svg>
