<svg width="27" height="27" viewBox="0 0 27 27" fill="none" xmlns="http://www.w3.org/2000/svg">
<path d="M13.5 18.1875L18.1875 13.5M18.1875 13.5L13.5 8.8125M18.1875 13.5H1M8.8125 6.07592V6.00031C8.8125 4.25014 8.8125 3.37441 9.1531 2.70593C9.45271 2.11793 9.93043 1.64021 10.5184 1.3406C11.1869 1 12.0626 1 13.8128 1H21.0003C22.7505 1 23.6243 1 24.2928 1.3406C24.8808 1.64021 25.3601 2.11793 25.6597 2.70593C26 3.37375 26 4.24843 26 5.99517V21.0056C26 22.7523 26 23.6257 25.6597 24.2936C25.3601 24.8816 24.8808 25.3601 24.2928 25.6597C23.625 26 22.7516 26 21.0048 26H13.8077C12.0609 26 11.1863 26 10.5184 25.6597C9.93043 25.3601 9.45271 24.8811 9.1531 24.2931C8.8125 23.6246 8.8125 22.7502 8.8125 21V20.9219" stroke="white" stroke-width="2" stroke-linecap="round" stroke-linejoin="round"/>
</svg>
