<svg width="27" height="27" viewBox="0 0 27 27" fill="none" xmlns="http://www.w3.org/2000/svg">
<path d="M1 12.1111V23.7778C1 24.5556 1 24.9439 1.15138 25.241C1.28454 25.5023 1.49687 25.7156 1.75821 25.8488C2.05502 26 2.4431 26 3.21944 26L18.2245 26C19.0009 26 19.3904 26 19.6872 25.8488C19.9486 25.7156 20.1598 25.5029 20.2929 25.2415C20.4443 24.9444 20.4443 24.5555 20.4443 23.7776L20.4464 17.6675M1 12.1111H10.7224M1 12.1111L1 11.5557C1 10.778 1 10.3886 1.15137 10.0915C1.28453 9.83019 1.49687 9.61785 1.75821 9.4847C2.05526 9.33334 2.44413 9.33334 3.22173 9.33334L6.55567 9.33333M10.7224 12.1111H18.2226C19.0004 12.1111 19.3921 12.1111 19.6892 12.2625C19.9506 12.3956 20.1598 12.608 20.2929 12.8693C20.4443 13.1664 20.4443 13.5553 20.4443 14.3332L20.4464 17.6675M10.7224 12.1111L9.22907 10.1912C8.98436 9.87659 8.86151 9.71865 8.70823 9.60528C8.5724 9.50482 8.42103 9.43026 8.25834 9.38472C8.07478 9.33334 7.87347 9.33334 7.47502 9.33334L6.55567 9.33333M6.55567 3.77778H23.7783C24.5561 3.77778 24.9478 3.77778 25.2449 3.92916C25.5062 4.06231 25.7155 4.27463 25.8486 4.53597C26 4.83307 26 5.22199 26 5.99985V15.4443C26 16.2222 26 16.6111 25.8486 16.9082C25.7155 17.1695 25.505 17.3823 25.2437 17.5154C24.9469 17.6667 24.5579 17.6667 23.7815 17.6667L20.4464 17.6675M6.55567 3.77778V9.33333M6.55567 3.77778L6.55568 3.22236C6.55568 2.44464 6.55568 2.05527 6.70705 1.75819C6.84021 1.49686 7.05254 1.28454 7.31388 1.15138C7.61099 1 7.99953 1 8.7774 1H13.0301C13.429 1 13.6271 1 13.8108 1.05141C13.9735 1.09695 14.1281 1.17149 14.2639 1.27195C14.4172 1.38532 14.54 1.54326 14.7847 1.85788L16.278 3.77775" stroke="white" stroke-width="2" stroke-linecap="round" stroke-linejoin="round"/>
</svg>
