<svg width="29" height="29" viewBox="0 0 29 29" fill="none" xmlns="http://www.w3.org/2000/svg">
<path d="M10.5369 10.4355C10.7741 9.70453 11.2086 9.05401 11.7928 8.55473C12.3771 8.05544 13.0887 7.72734 13.8477 7.60692C14.6067 7.48649 15.3838 7.57819 16.0939 7.87213C16.8039 8.16607 17.4189 8.65093 17.8707 9.27258C18.3225 9.89424 18.5931 10.6285 18.6535 11.3946C18.7139 12.1607 18.5611 12.9289 18.2123 13.6136C17.8634 14.2984 17.3326 14.8729 16.6774 15.2745C16.0222 15.6761 15.2686 15.8886 14.5001 15.8886V17.2775M14.5693 21.4446V21.5835L14.431 21.5831V21.4446H14.5693ZM16.2308 2.63723L17.9267 4.0824C18.3539 4.44649 18.8844 4.6666 19.4439 4.71125L21.6648 4.88826C22.9706 4.99246 24.0078 6.02898 24.112 7.33474L24.2886 9.55606C24.3332 10.1156 24.5541 10.6469 24.9182 11.0741L26.3627 12.7694C27.2123 13.7664 27.2125 15.233 26.3628 16.23L24.9183 17.9256C24.5542 18.3528 24.3336 18.8843 24.289 19.4438L24.1113 21.6648C24.0071 22.9706 22.9715 24.0077 21.6658 24.1119L19.4441 24.2892C18.8845 24.3338 18.3535 24.5534 17.9263 24.9175L16.2308 26.3627C15.2339 27.2123 13.7664 27.2125 12.7694 26.3629L11.074 24.9176C10.6467 24.5535 10.1158 24.3336 9.55621 24.2889L7.33449 24.1119C6.02873 24.0077 4.99318 22.9708 4.88898 21.665L4.71129 19.444C4.66664 18.8844 4.44603 18.3534 4.08194 17.9262L2.63742 16.2301C1.78779 15.2331 1.78739 13.767 2.63702 12.77L4.08285 11.0738C4.44693 10.6466 4.66542 10.1156 4.71008 9.55606L4.88776 7.33501C4.99196 6.02924 6.0305 4.99232 7.33626 4.88812L9.55553 4.71111C10.1151 4.66646 10.6463 4.44653 11.0735 4.08244L12.7696 2.63723C13.7666 1.78759 15.2339 1.78759 16.2308 2.63723Z" stroke="white" stroke-width="2.4" stroke-linecap="round" stroke-linejoin="round"/>
</svg>
